<?xml version="1.0" encoding="UTF-8" standalone="no"?>
<svg
   xmlns:dc="http://purl.org/dc/elements/1.1/"
   xmlns:cc="http://creativecommons.org/ns#"
   xmlns:rdf="http://www.w3.org/1999/02/22-rdf-syntax-ns#"
   xmlns:svg="http://www.w3.org/2000/svg"
   xmlns="http://www.w3.org/2000/svg"
   xmlns:sodipodi="http://sodipodi.sourceforge.net/DTD/sodipodi-0.dtd"
   xmlns:inkscape="http://www.inkscape.org/namespaces/inkscape"
   xml:space="preserve"
   enable-background="new 0 0 24 24"
   viewBox="0 0 24 24"
   height="24px"
   width="24px"
   y="0px"
   x="0px"
   id="Layer_1"
   version="1.1"
   inkscape:version="0.91 r13725"
   sodipodi:docname="Aggregate.svg"><sodipodi:namedview
     pagecolor="#ffffff"
     bordercolor="#666666"
     borderopacity="1"
     objecttolerance="10"
     gridtolerance="10"
     guidetolerance="10"
     inkscape:pageopacity="0"
     inkscape:pageshadow="2"
     inkscape:window-width="1918"
     inkscape:window-height="1042"
     id="namedview19340"
     showgrid="false"
     inkscape:zoom="90.509668"
     inkscape:cx="11.917171"
     inkscape:cy="13.680143"
     inkscape:window-x="0"
     inkscape:window-y="37"
     inkscape:window-maximized="0"
     inkscape:current-layer="g20056"
     showguides="true"
     inkscape:guide-bbox="true"><sodipodi:guide
       position="1.0426829,13.716673"
       orientation="1,0"
       id="guide20412" /></sodipodi:namedview><metadata
     id="metadata4212"><rdf:RDF><cc:Work
         rdf:about=""><dc:format>image/svg+xml</dc:format><dc:type
           rdf:resource="http://purl.org/dc/dcmitype/StillImage" /><dc:title></dc:title></cc:Work></rdf:RDF></metadata><defs
     id="defs4210"><marker
       inkscape:stockid="Arrow2Send"
       orient="auto"
       refY="0.0"
       refX="0.0"
       id="marker27777"
       style="overflow:visible;"
       inkscape:isstock="true"><path
         id="path27779"
         style="fill-rule:evenodd;stroke-width:0.625;stroke-linejoin:round;stroke:black;stroke-opacity:1"
         d="M 8.7185878,4.0337352 L -2.2072895,0.016013256 L 8.7185884,-4.0017078 C 6.9730900,-1.6296469 6.9831476,1.6157441 8.7185878,4.0337352 z "
         transform="scale(0.3) rotate(180) translate(-2.3,0)" /></marker><marker
       inkscape:stockid="Arrow1Send"
       orient="auto"
       refY="0.0"
       refX="0.0"
       id="marker27689"
       style="overflow:visible;"
       inkscape:isstock="true"><path
         id="path27691"
         d="M 0.0,0.0 L 5.0,-5.0 L -12.5,0.0 L 5.0,5.0 L 0.0,0.0 z "
         style="fill-rule:evenodd;stroke:black;stroke-width:1pt;stroke-opacity:1"
         transform="scale(0.2) rotate(180) translate(6,0)" /></marker><marker
       inkscape:stockid="Arrow2Send"
       orient="auto"
       refY="0.0"
       refX="0.0"
       id="Arrow2Send"
       style="overflow:visible;"
       inkscape:isstock="true"><path
         id="path6635"
         style="fill-rule:evenodd;stroke-width:0.625;stroke-linejoin:round;stroke:black;stroke-opacity:1"
         d="M 8.7185878,4.0337352 L -2.2072895,0.016013256 L 8.7185884,-4.0017078 C 6.9730900,-1.6296469 6.9831476,1.6157441 8.7185878,4.0337352 z "
         transform="scale(0.3) rotate(180) translate(-2.3,0)" /></marker><marker
       inkscape:stockid="Arrow2Mend"
       orient="auto"
       refY="0.0"
       refX="0.0"
       id="Arrow2Mend"
       style="overflow:visible;"
       inkscape:isstock="true"><path
         id="path6629"
         style="fill-rule:evenodd;stroke-width:0.625;stroke-linejoin:round;stroke:black;stroke-opacity:1"
         d="M 8.7185878,4.0337352 L -2.2072895,0.016013256 L 8.7185884,-4.0017078 C 6.9730900,-1.6296469 6.9831476,1.6157441 8.7185878,4.0337352 z "
         transform="scale(0.6) rotate(180) translate(0,0)" /></marker><marker
       inkscape:stockid="Arrow1Send"
       orient="auto"
       refY="0.0"
       refX="0.0"
       id="Arrow1Send"
       style="overflow:visible;"
       inkscape:isstock="true"><path
         id="path6617"
         d="M 0.0,0.0 L 5.0,-5.0 L -12.5,0.0 L 5.0,5.0 L 0.0,0.0 z "
         style="fill-rule:evenodd;stroke:black;stroke-width:1pt;stroke-opacity:1"
         transform="scale(0.2) rotate(180) translate(6,0)" /></marker><marker
       style="overflow:visible"
       id="DotM"
       refX="0.0"
       refY="0.0"
       orient="auto"><path
         transform="scale(0.4) translate(7.4, 1)"
         style="fill-rule:evenodd;stroke:#000000;stroke-width:1.0pt"
         d="M -2.5,-1.0 C -2.5,1.7600000 -4.7400000,4.0 -7.5,4.0 C -10.260000,4.0 -12.5,1.7600000 -12.5,-1.0 C -12.5,-3.7600000 -10.260000,-6.0 -7.5,-6.0 C -4.7400000,-6.0 -2.5,-3.7600000 -2.5,-1.0 z "
         id="path6409" /></marker><marker
       style="overflow:visible"
       id="DotS"
       refX="0.0"
       refY="0.0"
       orient="auto"><path
         transform="scale(0.2) translate(7.4, 1)"
         style="fill-rule:evenodd;stroke:#000000;stroke-width:1.0pt"
         d="M -2.5,-1.0 C -2.5,1.7600000 -4.7400000,4.0 -7.5,4.0 C -10.260000,4.0 -12.5,1.7600000 -12.5,-1.0 C -12.5,-3.7600000 -10.260000,-6.0 -7.5,-6.0 C -4.7400000,-6.0 -2.5,-3.7600000 -2.5,-1.0 z "
         id="path6412" /></marker><marker
       style="overflow:visible"
       id="DotL"
       refX="0.0"
       refY="0.0"
       orient="auto"><path
         transform="scale(0.8) translate(7.4, 1)"
         style="fill-rule:evenodd;stroke:#000000;stroke-width:1.0pt"
         d="M -2.5,-1.0 C -2.5,1.7600000 -4.7400000,4.0 -7.5,4.0 C -10.260000,4.0 -12.5,1.7600000 -12.5,-1.0 C -12.5,-3.7600000 -10.260000,-6.0 -7.5,-6.0 C -4.7400000,-6.0 -2.5,-3.7600000 -2.5,-1.0 z "
         id="path6406" /></marker><clipPath
       id="clipPath4840"
       clipPathUnits="userSpaceOnUse"><rect
         y="1"
         x="1"
         height="22"
         width="22"
         id="rect4842"
         style="fill:none;stroke:#333;stroke-width:0.01;stroke-linecap:round;stroke-linejoin:miter;stroke-miterlimit:4;stroke-opacity:1;stroke-dasharray:none" /></clipPath><clipPath
       id="clipPath6233"
       clipPathUnits="userSpaceOnUse"><rect
         y="-1.6326209"
         x="2.6516504"
         height="22.185474"
         width="24.130018"
         id="rect6235"
         style="fill:#1a1a1a;fill-opacity:1;stroke:#ff0d0d;stroke-width:0.1;stroke-linecap:round;stroke-linejoin:miter;stroke-miterlimit:4;stroke-opacity:1;stroke-dasharray:none" /></clipPath><clipPath
       id="clipPath6237"
       clipPathUnits="userSpaceOnUse"><rect
         y="-0.58566791"
         x="-26.476313"
         height="22.185474"
         width="24.130018"
         id="rect6239"
         style="fill:#1a1a1a;fill-opacity:1;stroke:#ff0d0d;stroke-width:0.1;stroke-linecap:round;stroke-linejoin:miter;stroke-miterlimit:4;stroke-opacity:1;stroke-dasharray:none" /></clipPath><marker
       style="overflow:visible"
       id="DotS-7"
       refX="0"
       refY="0"
       orient="auto"><path
         transform="matrix(0.2,0,0,0.2,1.48,0.2)"
         style="fill-rule:evenodd;stroke:black;stroke-width:1pt"
         d="m -2.5,-1 c 0,2.76 -2.24,5 -5,5 -2.76,0 -5,-2.24 -5,-5 0,-2.76 2.24,-5 5,-5 2.76,0 5,2.24 5,5 z"
         id="path6412-5" /></marker><marker
       style="overflow:visible"
       id="DotS-9"
       refX="0"
       refY="0"
       orient="auto"><path
         transform="matrix(0.2,0,0,0.2,1.48,0.2)"
         style="fill-rule:evenodd;stroke:black;stroke-width:1pt"
         d="m -2.5,-1 c 0,2.76 -2.24,5 -5,5 -2.76,0 -5,-2.24 -5,-5 0,-2.76 2.24,-5 5,-5 2.76,0 5,2.24 5,5 z"
         id="path6412-9" /></marker><marker
       style="overflow:visible"
       id="DotS-4"
       refX="0"
       refY="0"
       orient="auto"><path
         transform="matrix(0.2,0,0,0.2,1.48,0.2)"
         style="fill-rule:evenodd;stroke:black;stroke-width:1pt"
         d="m -2.5,-1 c 0,2.76 -2.24,5 -5,5 -2.76,0 -5,-2.24 -5,-5 0,-2.76 2.24,-5 5,-5 2.76,0 5,2.24 5,5 z"
         id="path6412-1" /></marker><clipPath
       id="clipPath7276"
       clipPathUnits="userSpaceOnUse"><rect
         y="6.5469537"
         x="-43.096714"
         height="9.374999"
         width="8.906249"
         id="rect7278"
         style="opacity:1;fill:red;fill-opacity:1;stroke:white;stroke-width:0;stroke-linecap:round;stroke-linejoin:round;stroke-miterlimit:4;stroke-dasharray:none;stroke-opacity:1" /></clipPath></defs><g
     id="g20056"
     transform="matrix(0.7416768,0,0,1.0656912,2.5227504,26.926184)"><g
       id="g27888"
       style="fill:#1a1a1a"><path
         inkscape:connector-curvature="0"
         id="text27671"
         d="m 22.503978,-8.6676916 c -0.03034,-0.7298402 0.145633,-1.5555134 -0.543137,-2.1649134 -1.024241,-0.516631 -2.366979,-0.333316 -3.560265,-0.36941 -1.572749,-0.03869 -3.290445,0.165113 -4.694218,-0.437131 -0.65496,-0.190082 -0.976877,-1.163484 -1.143076,-1.173668 -0.221053,0.778778 -1.13227,1.427526 -2.286055,1.514151 -1.9946195,0.217351 -4.0293604,-0.01277 -6.0276911,0.167355 -1.1632624,0.04078 -1.5641907,0.90128 -1.5245348,1.5897578 -0.1218847,0.2435643 0.1657854,0.7561112 -0.1245431,0.8738577 -0.5497126,0 -1.0994254,0 -1.64913821,0 0.0171111,-1.113154 -0.0793139,-2.3184195 0.80284351,-3.2976735 1.0017953,-0.830312 2.7191045,-0.806136 4.1459539,-0.817379 1.4256777,-0.03199 2.878057,0.09378 4.2761878,-0.144066 1.186939,-0.17518 1.556012,-1.101434 1.536252,-1.837988 0.119173,-0.207428 -0.240946,-0.742065 0.234861,-0.698315 0.511027,0 1.022054,0 1.533082,0 0.01083,0.804687 -0.119087,1.794107 0.912879,2.331765 1.307345,0.511736 2.861629,0.304631 4.297908,0.348604 1.548691,0.01201 3.281601,-0.0914 4.555502,0.634252 1.050728,0.830595 0.992171,2.02812 1.034729,3.0693194 0.05322,0.2818901 0.03454,0.5137499 -0.464227,0.411482 -0.43777,0 -0.875542,0 -1.313313,0 z"
         style="font-style:normal;font-variant:normal;font-weight:normal;font-stretch:normal;font-size:21.09008026px;line-height:125%;font-family:Monospace;-inkscape-font-specification:Monospace;letter-spacing:0px;word-spacing:0px;writing-mode:lr-tb;fill:#1a1a1a;fill-opacity:1;stroke:none;stroke-width:1px;stroke-linecap:butt;stroke-linejoin:miter;stroke-opacity:1" /><g
         transform="translate(0,0.49763955)"
         id="g27877"
         style="fill:#1a1a1a"><path
           inkscape:connector-curvature="0"
           id="path27675"
           d="m 11.712891,-18.617188 c 0,0.890625 0,1.781251 0,2.671876 0.589193,0 1.178385,0 1.767578,0 0,-0.890625 0,-1.781251 0,-2.671876 -0.589193,0 -1.178385,0 -1.767578,0 z"
           style="color:black;font-style:normal;font-variant:normal;font-weight:normal;font-stretch:normal;font-size:medium;line-height:normal;font-family:sans-serif;text-indent:0;text-align:start;text-decoration:none;text-decoration-line:none;text-decoration-style:solid;text-decoration-color:black;letter-spacing:normal;word-spacing:normal;text-transform:none;direction:ltr;block-progression:tb;writing-mode:lr-tb;baseline-shift:baseline;text-anchor:start;white-space:normal;clip-rule:nonzero;display:inline;overflow:visible;visibility:visible;opacity:1;isolation:auto;mix-blend-mode:normal;color-interpolation:sRGB;color-interpolation-filters:linearRGB;solid-color:black;solid-opacity:1;fill:#1a1a1a;fill-opacity:1;fill-rule:evenodd;stroke:none;stroke-width:1.76594269;stroke-linecap:butt;stroke-linejoin:miter;stroke-miterlimit:4;stroke-dasharray:none;stroke-dashoffset:0;stroke-opacity:1;color-rendering:auto;image-rendering:auto;shape-rendering:auto;text-rendering:auto;enable-background:accumulate" /><path
           inkscape:connector-curvature="0"
           id="path27883"
           d="m 10.459832,-16.045329 2.12852,-4.958942 2.12852,4.958943 c -1.826251,0.05205 -2.460114,0.07087 -4.25704,-10e-7 z"
           style="fill:#1a1a1a;fill-rule:evenodd;stroke:#1a1a1a;stroke-width:0.33111426;stroke-linejoin:round;stroke-opacity:1"
           sodipodi:nodetypes="cccc" /></g></g></g></svg>