<?xml version="1.0" encoding="UTF-8" standalone="no"?>
<!-- Generator: Adobe Illustrator 16.0.0, SVG Export Plug-In . SVG Version: 6.00 Build 0)  -->

<svg
   xmlns:dc="http://purl.org/dc/elements/1.1/"
   xmlns:cc="http://creativecommons.org/ns#"
   xmlns:rdf="http://www.w3.org/1999/02/22-rdf-syntax-ns#"
   xmlns:svg="http://www.w3.org/2000/svg"
   xmlns="http://www.w3.org/2000/svg"
   xmlns:sodipodi="http://sodipodi.sourceforge.net/DTD/sodipodi-0.dtd"
   xmlns:inkscape="http://www.inkscape.org/namespaces/inkscape"
   version="1.1"
   id="Layer_1"
   x="0px"
   y="0px"
   width="24px"
   height="24px"
   viewBox="0 0 24 24"
   enable-background="new 0 0 24 24"
   xml:space="preserve"
   inkscape:version="0.91 r13725"
   sodipodi:docname="ARIMA.svg"><metadata
     id="metadata4212"><rdf:RDF><cc:Work
         rdf:about=""><dc:format>image/svg+xml</dc:format><dc:type
           rdf:resource="http://purl.org/dc/dcmitype/StillImage" /><dc:title></dc:title></cc:Work></rdf:RDF></metadata><defs
     id="defs4210"><inkscape:path-effect
       effect="powerstroke"
       id="path-effect10125"
       is_visible="true"
       offset_points="0,0.5"
       sort_points="true"
       interpolator_type="CubicBezierJohan"
       interpolator_beta="0.2"
       start_linecap_type="zerowidth"
       linejoin_type="round"
       miter_limit="4"
       end_linecap_type="zerowidth"
       cusp_linecap_type="round" /><marker
       inkscape:stockid="DotM"
       orient="auto"
       refY="0.0"
       refX="0.0"
       id="DotM"
       style="overflow:visible"><path
         id="path6409"
         d="M -2.5,-1.0 C -2.5,1.7600000 -4.7400000,4.0 -7.5,4.0 C -10.260000,4.0 -12.5,1.7600000 -12.5,-1.0 C -12.5,-3.7600000 -10.260000,-6.0 -7.5,-6.0 C -4.7400000,-6.0 -2.5,-3.7600000 -2.5,-1.0 z "
         style="fill-rule:evenodd;stroke:#000000;stroke-width:1.0pt"
         transform="scale(0.4) translate(7.4, 1)" /></marker><marker
       inkscape:stockid="DotS"
       orient="auto"
       refY="0.0"
       refX="0.0"
       id="DotS"
       style="overflow:visible"><path
         id="path6412"
         d="M -2.5,-1.0 C -2.5,1.7600000 -4.7400000,4.0 -7.5,4.0 C -10.260000,4.0 -12.5,1.7600000 -12.5,-1.0 C -12.5,-3.7600000 -10.260000,-6.0 -7.5,-6.0 C -4.7400000,-6.0 -2.5,-3.7600000 -2.5,-1.0 z "
         style="fill-rule:evenodd;stroke:#000000;stroke-width:1.0pt"
         transform="scale(0.2) translate(7.4, 1)" /></marker><marker
       inkscape:stockid="DotL"
       orient="auto"
       refY="0.0"
       refX="0.0"
       id="DotL"
       style="overflow:visible"><path
         id="path6406"
         d="M -2.5,-1.0 C -2.5,1.7600000 -4.7400000,4.0 -7.5,4.0 C -10.260000,4.0 -12.5,1.7600000 -12.5,-1.0 C -12.5,-3.7600000 -10.260000,-6.0 -7.5,-6.0 C -4.7400000,-6.0 -2.5,-3.7600000 -2.5,-1.0 z "
         style="fill-rule:evenodd;stroke:#000000;stroke-width:1.0pt"
         transform="scale(0.8) translate(7.4, 1)" /></marker><clipPath
       clipPathUnits="userSpaceOnUse"
       id="clipPath4840"><rect
         style="fill:none;stroke:#333;stroke-width:0.01;stroke-linecap:round;stroke-linejoin:miter;stroke-miterlimit:4;stroke-opacity:1;stroke-dasharray:none"
         id="rect4842"
         width="22"
         height="22"
         x="1"
         y="1" /></clipPath><clipPath
       clipPathUnits="userSpaceOnUse"
       id="clipPath6233"><rect
         style="fill:#1a1a1a;fill-opacity:1;stroke:#ff0d0d;stroke-width:0.1;stroke-linecap:round;stroke-linejoin:miter;stroke-miterlimit:4;stroke-opacity:1;stroke-dasharray:none"
         id="rect6235"
         width="24.130018"
         height="22.185474"
         x="2.6516504"
         y="-1.6326209" /></clipPath><clipPath
       clipPathUnits="userSpaceOnUse"
       id="clipPath6237"><rect
         style="fill:#1a1a1a;fill-opacity:1;stroke:#ff0d0d;stroke-width:0.1;stroke-linecap:round;stroke-linejoin:miter;stroke-miterlimit:4;stroke-opacity:1;stroke-dasharray:none"
         id="rect6239"
         width="24.130018"
         height="22.185474"
         x="-26.476313"
         y="-0.58566791" /></clipPath><marker
       inkscape:stockid="DotS"
       orient="auto"
       refY="0"
       refX="0"
       id="DotS-7"
       style="overflow:visible"><path
         inkscape:connector-curvature="0"
         id="path6412-5"
         d="m -2.5,-1 c 0,2.76 -2.24,5 -5,5 -2.76,0 -5,-2.24 -5,-5 0,-2.76 2.24,-5 5,-5 2.76,0 5,2.24 5,5 z"
         style="fill-rule:evenodd;stroke:black;stroke-width:1pt"
         transform="matrix(0.2,0,0,0.2,1.48,0.2)" /></marker><marker
       inkscape:stockid="DotS"
       orient="auto"
       refY="0"
       refX="0"
       id="DotS-9"
       style="overflow:visible"><path
         inkscape:connector-curvature="0"
         id="path6412-9"
         d="m -2.5,-1 c 0,2.76 -2.24,5 -5,5 -2.76,0 -5,-2.24 -5,-5 0,-2.76 2.24,-5 5,-5 2.76,0 5,2.24 5,5 z"
         style="fill-rule:evenodd;stroke:black;stroke-width:1pt"
         transform="matrix(0.2,0,0,0.2,1.48,0.2)" /></marker><marker
       inkscape:stockid="DotS"
       orient="auto"
       refY="0"
       refX="0"
       id="DotS-4"
       style="overflow:visible"><path
         inkscape:connector-curvature="0"
         id="path6412-1"
         d="m -2.5,-1 c 0,2.76 -2.24,5 -5,5 -2.76,0 -5,-2.24 -5,-5 0,-2.76 2.24,-5 5,-5 2.76,0 5,2.24 5,5 z"
         style="fill-rule:evenodd;stroke:black;stroke-width:1pt"
         transform="matrix(0.2,0,0,0.2,1.48,0.2)" /></marker><clipPath
       clipPathUnits="userSpaceOnUse"
       id="clipPath7276"><rect
         style="opacity:1;fill:red;fill-opacity:1;stroke:white;stroke-width:0;stroke-linecap:round;stroke-linejoin:round;stroke-miterlimit:4;stroke-dasharray:none;stroke-opacity:1"
         id="rect7278"
         width="8.906249"
         height="9.374999"
         x="-43.096714"
         y="6.5469537" /></clipPath></defs><sodipodi:namedview
     pagecolor="#ffffff"
     bordercolor="#666666"
     borderopacity="1"
     objecttolerance="10"
     gridtolerance="10"
     guidetolerance="10"
     inkscape:pageopacity="0"
     inkscape:pageshadow="2"
     inkscape:window-width="1918"
     inkscape:window-height="1042"
     id="namedview4208"
     showgrid="true"
     inkscape:zoom="22.627417"
     inkscape:cx="15.613046"
     inkscape:cy="14.364195"
     inkscape:window-x="0"
     inkscape:window-y="37"
     inkscape:window-maximized="0"
     inkscape:current-layer="g5188"
     inkscape:snap-global="false"><inkscape:grid
       type="xygrid"
       id="grid4788" /></sodipodi:namedview><g
     id="g5188"
     transform="translate(29.127963,-1.046953)"><g
       id="g10391"
       transform="matrix(0.80928643,0,0,0.8089514,-1.8549198,-20.08607)"><g
         transform="translate(-0.0369369,0.0148398)"
         id="g10379"><path
           inkscape:connector-curvature="0"
           id="path10389"
           d="m -29.965364,40.952066 0,-11.120671 0.646909,0 0.646909,0 0,10.473762 0,10.473762 10.473762,0 10.4737618,0 0,0.646909 0,0.646908 -11.1206708,0 -11.120671,0 0,-11.12067 z m 1.827774,8.553572 c -0.02259,-0.02259 -0.04107,-0.162384 -0.04107,-0.310652 l 0,-0.269579 0.06717,-0.07441 c 0.03694,-0.04093 0.847888,-1.516095 1.802103,-3.278151 l 1.734935,-3.203739 0.323542,-0.01863 0.323542,-0.01863 0.866195,0.749078 0.866195,0.749078 0.04247,-0.04226 c 0.02336,-0.02324 0.6808,-1.017337 1.460981,-2.209101 l 1.418511,-2.166844 0.32334,-0.01867 0.32334,-0.01867 0.994802,0.719764 0.994803,0.719764 0.06662,-0.09385 c 0.03664,-0.05162 0.662698,-1.191758 1.391241,-2.533642 0.728542,-1.341884 1.344444,-2.439952 1.368671,-2.440151 0.02423,-1.85e-4 0.498378,0.221435 1.05367,0.492521 1.137663,0.555392 1.083102,0.540134 1.226383,0.342973 0.236016,-0.324765 1.7439119,-2.426376 1.933224,-2.694405 0.1116798,-0.158117 0.4589417,-0.643298 0.7716932,-1.078181 0.3127521,-0.434884 0.6815375,-0.952495 0.8195232,-1.150247 l 0.2508842,-0.35955 0.015809,4.405608 c 0.0087,2.423084 0.0087,6.399468 0,8.83641 l -0.015809,4.430803 -0.677714,-0.945263 c -0.3727427,-0.519894 -0.802475,-1.122391 -0.9549607,-1.338881 -0.2166633,-0.307606 -2.0753189,-2.914825 -2.1230259,-2.978063 -0.006,-0.008 -0.531618,0.251685 -1.168045,0.576966 l -1.157138,0.591422 -0.08009,-0.08408 c -0.04405,-0.04625 -0.362246,-0.416779 -0.707107,-0.823407 -0.344861,-0.406629 -0.687781,-0.808636 -0.762045,-0.893351 -0.07426,-0.08471 -0.383005,-0.452066 -0.686092,-0.816337 l -0.551067,-0.662311 -0.168755,0 -0.168755,0 -0.937955,-0.679386 -0.937954,-0.679386 -0.9184,1.403308 c -0.50512,0.771819 -1.172574,1.796577 -1.483231,2.27724 l -0.564831,0.873933 -0.264567,0.004 -0.264567,0.004 -0.900299,-0.775595 -0.900299,-0.775595 -0.263908,0.480465 c -0.145149,0.264256 -0.910156,1.679661 -1.700015,3.145345 l -1.436108,2.664876 -0.282381,0.0022 c -0.15531,0.0012 -0.300864,-0.01624 -0.323455,-0.03883 z"
           style="fill:#d5d5d5" /><path
           inkscape:connector-curvature="0"
           id="path10387"
           d="m -29.965364,40.952066 0,-11.120671 0.646909,0 0.646909,0 0,10.473762 0,10.473762 10.473762,0 10.4737618,0 0,0.646909 0,0.646908 -11.1206708,0 -11.120671,0 0,-11.12067 z m 1.827774,8.553572 c -0.02259,-0.02259 -0.04107,-0.162384 -0.04107,-0.310652 l 0,-0.269579 0.06717,-0.07441 c 0.03694,-0.04093 0.847888,-1.516095 1.802103,-3.278151 l 1.734935,-3.203739 0.323542,-0.01863 0.323542,-0.01863 0.866195,0.749078 0.866195,0.749078 0.04247,-0.04226 c 0.02336,-0.02324 0.6808,-1.017337 1.460981,-2.209101 l 1.418511,-2.166844 0.322745,-0.01865 0.322744,-0.01865 1.080671,0.780391 c 0.594369,0.429216 1.089762,0.770304 1.100873,0.757973 0.01111,-0.01233 0.541248,-0.743259 1.178084,-1.624287 0.636835,-0.881028 1.263929,-1.746215 1.393542,-1.922637 l 0.235661,-0.320767 0.955499,0.455953 0.955501,0.455952 2.0018387,-2.216352 2.0018391,-2.216352 0,6.778957 c 0,3.728426 -0.011918,6.778957 -0.026484,6.778957 -0.014566,0 -0.8890351,-0.95694 -1.9432648,-2.126533 l -1.916781,-2.126533 -1.011729,0.52852 -1.011728,0.52852 -1.355465,-1.143648 -1.355465,-1.143648 -0.307341,0 -0.30734,0 -0.937955,-0.679386 -0.937954,-0.679386 -0.9184,1.403308 c -0.50512,0.771819 -1.172574,1.796577 -1.483231,2.27724 l -0.564831,0.873933 -0.264567,0.004 -0.264567,0.004 -0.900299,-0.775595 -0.900299,-0.775595 -0.263908,0.480465 c -0.145149,0.264256 -0.910156,1.679661 -1.700015,3.145345 l -1.436108,2.664876 -0.282381,0.0022 c -0.15531,0.0012 -0.300864,-0.01624 -0.323455,-0.03883 z"
           style="fill:#a6a6a6" /><path
           inkscape:connector-curvature="0"
           id="path10385"
           d="m -29.950129,40.967468 0.01557,-11.105268 0.600524,-0.01763 0.600524,-0.01763 0.01558,10.491393 0.01558,10.491394 10.489164,0.01558 10.4891648,0.01558 0,0.615927 0,0.615926 -11.1208388,0 -11.120838,0 0.01557,-11.105268 z m 1.812539,8.53817 c -0.02259,-0.02259 -0.04107,-0.162384 -0.04107,-0.310652 l 0,-0.269579 0.06717,-0.07441 c 0.03694,-0.04093 0.847888,-1.516095 1.802103,-3.278151 l 1.734935,-3.203739 0.323542,-0.01863 0.323542,-0.01863 0.866195,0.749078 0.866195,0.749078 0.04247,-0.04226 c 0.02336,-0.02324 0.680813,-1.017337 1.461011,-2.209101 l 1.418541,-2.166844 0.337355,-0.0145 0.337353,-0.01451 1.078182,0.786423 1.078181,0.786423 0.01862,0.321666 0.01862,0.321666 -0.277488,0 -0.277488,0 -0.937955,-0.679386 -0.937954,-0.679386 -0.9184,1.403308 c -0.50512,0.771819 -1.172574,1.796577 -1.483231,2.27724 l -0.564831,0.873933 -0.264567,0.004 -0.264567,0.004 -0.900299,-0.775595 -0.900299,-0.775595 -0.263908,0.480465 c -0.145149,0.264256 -0.910156,1.679661 -1.700015,3.145345 l -1.436108,2.664876 -0.282381,0.0022 c -0.15531,0.0012 -0.300864,-0.01624 -0.323455,-0.03883 z"
           style="fill:#797979" /><path
           inkscape:connector-curvature="0"
           id="path10383"
           d="m -29.915416,52.026696 c -0.01053,-0.02551 -0.01082,-5.029883 -6.44e-4,-11.120838 l 0.0185,-11.074463 0.582202,0 0.582202,0 0,10.504567 0,10.504567 10.506799,0 10.5067976,0 -0.017634,0.600701 -0.017633,0.600701 -11.0707236,0.01557 -11.070723,0.01557 -0.01914,-0.04638 z m 1.777826,-2.521058 c -0.02259,-0.02259 -0.04107,-0.162384 -0.04107,-0.310652 l 0,-0.269579 0.06717,-0.07441 c 0.03694,-0.04093 0.847888,-1.516095 1.802103,-3.278151 l 1.734935,-3.203739 0.323542,-0.01863 0.323542,-0.01863 0.866195,0.749078 0.866195,0.749078 0.04247,-0.04226 c 0.02336,-0.02324 0.680813,-1.017337 1.461011,-2.209101 l 1.418541,-2.166844 0.337355,-0.0145 0.337353,-0.01451 1.078182,0.786423 1.078181,0.786423 0.01862,0.321666 0.01862,0.321666 -0.277488,0 -0.277488,0 -0.937955,-0.679386 -0.937954,-0.679386 -0.9184,1.403308 c -0.50512,0.771819 -1.172574,1.796577 -1.483231,2.27724 l -0.564831,0.873933 -0.264567,0.004 -0.264567,0.004 -0.900299,-0.775595 -0.900299,-0.775595 -0.263908,0.480465 c -0.145149,0.264256 -0.910156,1.679661 -1.700015,3.145345 l -1.436108,2.664876 -0.282381,0.0022 c -0.15531,0.0012 -0.300864,-0.01624 -0.323455,-0.03883 z"
           style="fill:#5c5c5c" /><path
           inkscape:connector-curvature="0"
           id="path10381"
           d="m -29.903753,40.992454 0,-11.099449 0.585298,0 0.585298,0 0,10.473762 0,10.473762 10.504568,0 10.5045668,0 0,0.585299 0,0.585298 -10.2119178,2.47e-4 -10.211918,2.46e-4 -0.877948,0.04016 -0.877947,0.04012 0,-11.099449 z m 1.766163,8.513184 c -0.02259,-0.02259 -0.04107,-0.162384 -0.04107,-0.310652 l 0,-0.269579 0.06717,-0.07441 c 0.03694,-0.04093 0.847888,-1.516095 1.802103,-3.278151 l 1.734935,-3.203739 0.323542,-0.01863 0.323542,-0.01863 0.866195,0.749078 0.866195,0.749078 0.04247,-0.04226 c 0.02336,-0.02324 0.680813,-1.017337 1.461011,-2.209101 l 1.418541,-2.166844 0.337355,-0.0145 0.337353,-0.01451 1.078182,0.786423 1.078181,0.786423 0.01862,0.321666 0.01862,0.321666 -0.277488,0 -0.277488,0 -0.937955,-0.679386 -0.937954,-0.679386 -0.9184,1.403308 c -0.50512,0.771819 -1.172574,1.796577 -1.483231,2.27724 l -0.564831,0.873933 -0.264567,0.004 -0.264567,0.004 -0.900299,-0.775595 -0.900299,-0.775595 -0.263908,0.480465 c -0.145149,0.264256 -0.910156,1.679661 -1.700015,3.145345 l -1.436108,2.664876 -0.282381,0.0022 c -0.15531,0.0012 -0.300864,-0.01624 -0.323455,-0.03883 z"
           style="fill:#191919" /></g><path
         inkscape:connector-curvature="0"
         id="path10329"
         d="m -16.532623,41.354603 3.18198,-1.370019 1.767767,0.574524 3.756505,-0.795495"
         style="fill:none;fill-rule:evenodd;stroke:#333;stroke-width:0.60000002;stroke-linecap:butt;stroke-linejoin:miter;stroke-miterlimit:4;stroke-dasharray:0.6, 0.6;stroke-dashoffset:0;stroke-opacity:1" /></g></g></svg>