<?xml version="1.0" encoding="UTF-8" standalone="no"?>
<!-- Generator: Adobe Illustrator 16.0.0, SVG Export Plug-In . SVG Version: 6.00 Build 0)  -->

<svg
   xmlns:dc="http://purl.org/dc/elements/1.1/"
   xmlns:cc="http://creativecommons.org/ns#"
   xmlns:rdf="http://www.w3.org/1999/02/22-rdf-syntax-ns#"
   xmlns:svg="http://www.w3.org/2000/svg"
   xmlns="http://www.w3.org/2000/svg"
   xmlns:sodipodi="http://sodipodi.sourceforge.net/DTD/sodipodi-0.dtd"
   xmlns:inkscape="http://www.inkscape.org/namespaces/inkscape"
   version="1.1"
   id="Layer_1"
   x="0px"
   y="0px"
   width="24px"
   height="24px"
   viewBox="0 0 24 24"
   enable-background="new 0 0 24 24"
   xml:space="preserve"
   inkscape:version="0.48.5 r10040"
   sodipodi:docname="Category-Timeseries.svg"><metadata
     id="metadata4212"><rdf:RDF><cc:Work
         rdf:about=""><dc:format>image/svg+xml</dc:format><dc:type
           rdf:resource="http://purl.org/dc/dcmitype/StillImage" /><dc:title></dc:title></cc:Work></rdf:RDF></metadata><defs
     id="defs4210"><clipPath
       clipPathUnits="userSpaceOnUse"
       id="clipPath4840"><rect
         style="fill:none;stroke:#333;stroke-width:0.01;stroke-linecap:round;stroke-linejoin:miter;stroke-miterlimit:4;stroke-opacity:1;stroke-dasharray:none"
         id="rect4842"
         width="22"
         height="22"
         x="1"
         y="1" /></clipPath><clipPath
       clipPathUnits="userSpaceOnUse"
       id="clipPath6233"><rect
         style="fill:#1a1a1a;fill-opacity:1;stroke:#ff0d0d;stroke-width:0.1;stroke-linecap:round;stroke-linejoin:miter;stroke-miterlimit:4;stroke-opacity:1;stroke-dasharray:none"
         id="rect6235"
         width="24.130018"
         height="22.185474"
         x="2.6516504"
         y="-1.6326209" /></clipPath><clipPath
       clipPathUnits="userSpaceOnUse"
       id="clipPath6237"><rect
         style="fill:#1a1a1a;fill-opacity:1;stroke:#ff0d0d;stroke-width:0.1;stroke-linecap:round;stroke-linejoin:miter;stroke-miterlimit:4;stroke-opacity:1;stroke-dasharray:none"
         id="rect6239"
         width="24.130018"
         height="22.185474"
         x="-26.476313"
         y="-0.58566791" /></clipPath></defs><sodipodi:namedview
     pagecolor="#ffffff"
     bordercolor="#666666"
     borderopacity="1"
     objecttolerance="10"
     gridtolerance="10"
     guidetolerance="10"
     inkscape:pageopacity="0"
     inkscape:pageshadow="2"
     inkscape:window-width="1918"
     inkscape:window-height="1042"
     id="namedview4208"
     showgrid="true"
     inkscape:zoom="22.627417"
     inkscape:cx="4.1762251"
     inkscape:cy="9.5047615"
     inkscape:window-x="0"
     inkscape:window-y="37"
     inkscape:window-maximized="0"
     inkscape:current-layer="g5188"
     inkscape:snap-global="false"><inkscape:grid
       type="xygrid"
       id="grid4788" /></sodipodi:namedview><g
     id="g5188"
     transform="translate(29.127963,-1.046953)"><path
       style="fill:#4d4d4d"
       d="m -28.625852,13.298793 0,-10.6785718 0.821429,0 0.821428,0 0,9.8571428 0,9.857142 10.678572,0 10.678571,0 0,0.821429 0,0.821428 -11.5,0 -11.5,0 0,-10.67857 z m 6.609882,5.875385 -1.681413,-0.844495 -1.232092,0.616456 -1.232091,0.616457 0,-0.924107 0,-0.924108 1.231827,-0.616324 1.231828,-0.616325 1.566224,0.782611 1.566224,0.78261 1.64257,-1.641967 1.642569,-1.641968 1.643311,0.820373 1.643312,0.820372 1.642593,-1.641991 1.642592,-1.641991 1.719904,0.859494 1.7199028,0.859495 0,0.924098 0,0.924098 -1.5659088,-0.782454 -1.565909,-0.782452 -1.642569,1.641967 -1.642569,1.641968 -1.643312,-0.820373 -1.643312,-0.820372 -1.630091,1.629494 -1.630091,1.629495 -0.05105,-0.0028 c -0.02807,-0.0015 -0.807678,-0.382805 -1.732455,-0.847278 z m -4.142788,-5.067026 -0.0028,-1.784273 1.109461,-2.220191 c 0.610205,-1.2211046 1.119363,-2.2307152 1.131463,-2.2435793 0.0121,-0.012864 0.806585,0.7609405 1.765522,1.7195663 l 1.743521,1.742956 1.557628,-1.557 1.557627,-1.5569994 1.548286,0.7744762 1.548286,0.7744752 1.643012,-3.285707 1.643012,-3.2857081 1.822519,0.9108285 1.8225196,0.9108284 0,0.8859392 c 0,0.4872666 -0.011711,0.8859392 -0.026024,0.8859392 -0.014313,0 -0.6726787,-0.3234868 -1.4630356,-0.71886 l -1.437014,-0.7188601 -1.643114,3.2859123 -1.643113,3.2859126 -1.732579,-0.868893 -1.732577,-0.868892 -1.732683,1.728436 -1.732681,1.728435 -1.535961,-1.53532 -1.535959,-1.53532 -1.336251,2.665086 -1.33625,2.665086 -0.0028,-1.784274 z"
       id="path5192"
       inkscape:connector-curvature="0"
       clip-path="url(#clipPath6237)"
       transform="translate(-0.26516504,0.04419417)" /><path
       style="fill:#1a1a1a"
       d="m 0.5,12.25 c 0,3.5625 0,7.125 0,10.6875 7.6666667,0 15.333333,0 23,0 0,-0.552083 0,-1.104167 0,-1.65625 -7.114583,0 -14.2291667,0 -21.34375,0 0,-6.572917 0,-13.1458333 0,-19.71875 -0.5520833,0 -1.1041667,0 -1.65625,0 0,3.5625 0,7.125 0,10.6875 z m 16.25,1.46875 c -0.552083,0.552083 -1.104167,1.104167 -1.65625,1.65625 -1.083333,-0.552083 -2.166667,-1.104167 -3.25,-1.65625 -1.104167,1.104167 -2.2083333,2.208333 -3.3125,3.3125 C 7.5,16.510417 6.46875,15.989583 5.4375,15.46875 4.6048525,15.855293 3.7818026,16.261273 2.96875,16.6875 2.9788714,17.281261 2.9423357,17.876685 3,18.46875 3.8192361,18.075974 4.6315441,17.66934 5.4375,17.25 c 1.1458333,0.572917 2.2916667,1.145833 3.4375,1.71875 1.1041667,-1.09375 2.208333,-2.1875 3.3125,-3.28125 0.979167,0.5 1.958333,1 2.9375,1.5 0.166982,-0.0351 0.273769,0.254851 0.4375,0.125 0.543719,-0.767336 1.336177,-1.299526 1.946028,-2.008528 0.413824,-0.413824 0.827648,-0.827648 1.241472,-1.241472 1.020833,0.510417 2.041667,1.020833 3.0625,1.53125 l 0.03125,0 c 0,-0.59375 0,-1.1875 0,-1.78125 -1.145833,-0.572917 -2.291667,-1.145833 -3.4375,-1.71875 -0.552083,0.541667 -1.104167,1.083333 -1.65625,1.625 z"
       id="path5190"
       transform="translate(-29.393128,1.0911472)"
       clip-path="url(#clipPath6233)"
       inkscape:connector-curvature="0" /><rect
       style="fill:#1a1a1a"
       id="rect6184"
       height="22"
       width="1.222"
       y="2.0703321"
       x="-28.195536" /><rect
       style="fill:#1a1a1a"
       id="rect6218"
       height="1.222"
       width="22"
       y="22.84833"
       x="-28.195536" /></g></svg>