<?xml version="1.0" encoding="UTF-8" standalone="no"?>
<svg
   xmlns:dc="http://purl.org/dc/elements/1.1/"
   xmlns:cc="http://creativecommons.org/ns#"
   xmlns:rdf="http://www.w3.org/1999/02/22-rdf-syntax-ns#"
   xmlns:svg="http://www.w3.org/2000/svg"
   xmlns="http://www.w3.org/2000/svg"
   xml:space="preserve"
   enable-background="new 0 0 48 48"
   viewBox="0 0 48 48"
   height="48px"
   width="48px"
   y="0px"
   x="0px"
   id="Layer_1"
   version="1.1"><metadata
     id="metadata4295"><rdf:RDF><cc:Work
         rdf:about=""><dc:format>image/svg+xml</dc:format><dc:type
           rdf:resource="http://purl.org/dc/dcmitype/StillImage" /><dc:title></dc:title></cc:Work></rdf:RDF></metadata><defs
     id="defs4293"><marker
       style="overflow:visible"
       id="TriangleOutM"
       refX="0.0"
       refY="0.0"
       orient="auto"><path
         transform="scale(0.4)"
         style="fill-rule:evenodd;stroke:#1a1a1a;stroke-width:1pt;stroke-opacity:1"
         d="M 5.77,0.0 L -2.88,5.0 L -2.88,-5.0 L 5.77,0.0 z "
         id="path6747" /></marker><marker
       style="overflow:visible"
       id="TriangleOutL"
       refX="0.0"
       refY="0.0"
       orient="auto"><path
         transform="scale(0.8)"
         style="fill-rule:evenodd;stroke:black;stroke-width:1pt;stroke-opacity:1"
         d="M 5.77,0.0 L -2.88,5.0 L -2.88,-5.0 L 5.77,0.0 z "
         id="path6744" /></marker><marker
       style="overflow:visible;"
       id="marker7316"
       refX="0.0"
       refY="0.0"
       orient="auto"><path
         transform="scale(1.1) rotate(180) translate(1,0)"
         d="M 8.7185878,4.0337352 L -2.2072895,0.016013256 L 8.7185884,-4.0017078 C 6.9730900,-1.6296469 6.9831476,1.6157441 8.7185878,4.0337352 z "
         style="fill-rule:evenodd;stroke-width:0.625;stroke-linejoin:round;stroke:black;stroke-opacity:1"
         id="path7318" /></marker><marker
       style="overflow:visible;"
       id="marker7252"
       refX="0.0"
       refY="0.0"
       orient="auto"><path
         transform="scale(0.2) rotate(180) translate(6,0)"
         style="fill-rule:evenodd;stroke:black;stroke-width:1pt;stroke-opacity:1"
         d="M 0.0,0.0 L 5.0,-5.0 L -12.5,0.0 L 5.0,5.0 L 0.0,0.0 z "
         id="path7254" /></marker><marker
       style="overflow:visible;"
       id="marker7148"
       refX="0.0"
       refY="0.0"
       orient="auto"><path
         transform="scale(0.2) rotate(180) translate(6,0)"
         style="fill-rule:evenodd;stroke:black;stroke-width:1pt;stroke-opacity:1"
         d="M 0.0,0.0 L 5.0,-5.0 L -12.5,0.0 L 5.0,5.0 L 0.0,0.0 z "
         id="path7150" /></marker><marker
       style="overflow:visible;"
       id="Arrow1Mend"
       refX="0.0"
       refY="0.0"
       orient="auto"><path
         transform="scale(0.4) rotate(180) translate(10,0)"
         style="fill-rule:evenodd;stroke:black;stroke-width:1pt;stroke-opacity:1"
         d="M 0.0,0.0 L 5.0,-5.0 L -12.5,0.0 L 5.0,5.0 L 0.0,0.0 z "
         id="path6611" /></marker><marker
       style="overflow:visible;"
       id="Arrow1Send"
       refX="0.0"
       refY="0.0"
       orient="auto"><path
         transform="scale(0.2) rotate(180) translate(6,0)"
         style="fill-rule:evenodd;stroke:black;stroke-width:1pt;stroke-opacity:1"
         d="M 0.0,0.0 L 5.0,-5.0 L -12.5,0.0 L 5.0,5.0 L 0.0,0.0 z "
         id="path6617" /></marker><marker
       style="overflow:visible;"
       id="Arrow2Mend"
       refX="0.0"
       refY="0.0"
       orient="auto"><path
         transform="scale(0.6) rotate(180) translate(0,0)"
         d="M 8.7185878,4.0337352 L -2.2072895,0.016013256 L 8.7185884,-4.0017078 C 6.9730900,-1.6296469 6.9831476,1.6157441 8.7185878,4.0337352 z "
         style="fill-rule:evenodd;stroke-width:0.625;stroke-linejoin:round;stroke:black;stroke-opacity:1"
         id="path6629" /></marker><marker
       style="overflow:visible;"
       id="Arrow2Lend"
       refX="0.0"
       refY="0.0"
       orient="auto"><path
         transform="scale(1.1) rotate(180) translate(1,0)"
         d="M 8.7185878,4.0337352 L -2.2072895,0.016013256 L 8.7185884,-4.0017078 C 6.9730900,-1.6296469 6.9831476,1.6157441 8.7185878,4.0337352 z "
         style="fill-rule:evenodd;stroke-width:0.625;stroke-linejoin:round;stroke:black;stroke-opacity:1"
         id="path6623" /></marker><marker
       style="overflow:visible;"
       id="Arrow1Lend"
       refX="0.0"
       refY="0.0"
       orient="auto"><path
         transform="scale(0.8) rotate(180) translate(12.5,0)"
         style="fill-rule:evenodd;stroke:black;stroke-width:1pt;stroke-opacity:1"
         d="M 0.0,0.0 L 5.0,-5.0 L -12.5,0.0 L 5.0,5.0 L 0.0,0.0 z "
         id="path6605" /></marker><marker
       style="overflow:visible"
       id="Arrow1Lstart"
       refX="0.0"
       refY="0.0"
       orient="auto"><path
         transform="scale(0.8) translate(12.5,0)"
         style="fill-rule:evenodd;stroke:black;stroke-width:1pt;stroke-opacity:1"
         d="M 0.0,0.0 L 5.0,-5.0 L -12.5,0.0 L 5.0,5.0 L 0.0,0.0 z "
         id="path6602" /></marker><marker
       style="overflow:visible"
       id="TriangleOutM-4"
       refX="0"
       refY="0"
       orient="auto"><path
         transform="scale(0.4,0.4)"
         style="fill-rule:evenodd;stroke:#1a1a1a;stroke-width:1pt;stroke-opacity:1"
         d="m 5.77,0 -8.65,5 0,-10 8.65,5 z"
         id="path6747-7" /></marker></defs><g
     transform="matrix(-0.78570884,0,0,-0.82237155,6.3063282,29.201444)"
     id="g12538"><path
       id="path12552"
       d="m -42.054547,27.363214 c -1.582755,0 -3.049713,-0.772889 -3.671259,-1.934259 -0.569351,-1.063842 -1.035184,-2.638842 -1.035184,-3.5 0,-0.861157 0.7875,-2.382279 1.75,-3.38027 0.9625,-0.997991 2.59498,-3.448142 3.627733,-5.444781 1.476674,-2.854878 3.584764,-4.496394 9.869941,-7.685471 4.395714,-2.230371 8.811677,-4.055219 9.81325,-4.055219 1.001573,0 2.099157,0.45 2.439076,1 0.339919,0.55 1.507309,1 2.5942,1 1.086892,0 3.108335,-0.741825 4.492095,-1.6485 1.383761,-0.906675 3.178963,-2.930666 3.989338,-4.497759 1.311657,-2.536464 1.298243,-3.116596 -0.122184,-5.284442 -1.233323,-1.88229 -1.347209,-2.899293 -0.501603,-4.479323 0.601695,-1.124277 1.899675,-2.475329 2.8844,-3.002338 1.199206,-0.641795 2.595013,-0.55916 4.227082,0.250253 1.549781,0.768604 2.5555,2.23886 2.763144,4.039428 0.196026,1.699823 -0.407535,3.68838 -1.510552,4.976829 -1.010363,1.180219 -2.696363,3.843984 -3.746666,5.919478 -1.050303,2.075495 -3.295555,4.611685 -4.989448,5.635979 -1.693893,1.024294 -4.170212,2.193714 -5.502931,2.59871 -1.332719,0.404996 -3.330072,1.581305 -4.438562,2.61402 -1.10849,1.032716 -2.775483,1.877665 -3.70443,1.877665 -0.928946,0 -2.249194,-0.675 -2.933883,-1.5 -0.684689,-0.825 -1.684281,-1.5 -2.221316,-1.5 -0.537034,0 -2.480582,0.713769 -4.318994,1.586153 -1.838413,0.872384 -4.079228,2.710436 -4.97959,4.084562 -1.492281,2.277509 -1.497458,2.652623 -0.05856,4.242588 0.868153,0.959298 1.57846,2.426501 1.57846,3.26045 0,0.83395 -0.822933,2.261016 -1.828741,3.171259 -1.005807,0.910244 -3.014974,1.654988 -4.464816,1.654988 z m 1.201596,-2.220806 c 0.946881,-0.182353 1.591961,-1.314063 1.591961,-2.792889 0,-1.772432 -0.609481,-2.573266 -2.122722,-2.789177 -1.270862,-0.181328 -2.381376,0.371169 -2.767253,1.376748 -0.354492,0.923791 -0.11565,2.316884 0.530761,3.095761 0.646411,0.778877 1.891675,1.278178 2.767253,1.109557 z m 18.33749,-15.959057 c 1.403112,-0.199243 2.368845,-1.121743 2.557343,-2.442859 0.184196,-1.290964 -0.375166,-2.38291 -1.427541,-2.786745 -0.991551,-0.380493 -2.353473,-0.04096 -3.189617,0.795181 -0.802561,0.802562 -1.174679,2.200658 -0.826929,3.106881 0.389531,1.015101 1.497811,1.524772 2.886744,1.327542 z m 19,-17 c 1.652733,-0.23469 2.254471,-0.987409 2.254471,-2.820137 0,-1.832728 -0.601738,-2.585447 -2.254471,-2.820137 -1.352279,-0.192025 -2.495586,0.308199 -2.856989,1.25 -0.331384,0.863575 -0.331384,2.2766986 0,3.140274 0.361403,0.941801 1.50471,1.442025 2.856989,1.25 z"
       style="fill:#e9e9e9" /><path
       id="path12550"
       d="m -41.129055,27.363214 c -1.277078,0 -3.066704,-0.822933 -3.976947,-1.828741 -0.910244,-1.005807 -1.654988,-2.585211 -1.654988,-3.509787 0,-0.924576 0.9,-2.451651 2,-3.3935 1.1,-0.94185 2,-2.271787 2,-2.955417 0,-0.683629 1.391735,-2.828061 3.092745,-4.765404 1.880293,-2.141536 4.722517,-3.98592 7.25,-4.70469 2.28649,-0.650236 5.086258,-2.005795 6.221706,-3.012354 1.135448,-1.006559 2.722821,-1.830107 3.527494,-1.830107 0.804673,0 2.394041,0.652097 3.531928,1.449104 1.824387,1.27785 2.462719,1.248306 5.401421,-0.25 1.832895,-0.934507 4.250987,-2.95147 5.373537,-4.48214 1.696953,-2.313905 1.835362,-3.112315 0.821085,-4.736431 -0.670954,-1.074367 -1.219916,-2.9945013 -1.219916,-4.266964 0,-1.272463 0.54,-2.853569 1.2,-3.513569 0.66,-0.66 2.202857,-1.2 3.428571,-1.2 1.225715,0 2.935715,0.707143 3.8,1.571429 0.864286,0.864285 1.571429,2.44369 1.571429,3.509787 0,1.066097 -0.9,2.708963 -2,3.650812 -1.1,0.94185 -2,2.511149 -2,3.487332 0,0.976183 -1.624421,3.572918 -3.609824,5.770522 -2.130238,2.357918 -5.209187,4.474824 -7.511875,5.164726 -2.146128,0.642996 -4.401808,1.771253 -5.012621,2.507238 -0.610813,0.735984 -2.186575,1.338154 -3.501694,1.338154 -1.315118,0 -3.186962,-0.497009 -4.159653,-1.104465 -1.334535,-0.833431 -2.661812,-0.731228 -5.40865,0.416474 -2.002067,0.836517 -4.381186,2.651949 -5.286933,4.034293 -1.531624,2.337554 -1.52902,2.693128 0.03723,5.083526 1.563236,2.385798 1.566534,2.749512 0.04598,5.070172 -0.9688,1.478572 -2.586752,2.5 -3.960025,2.5 z m -0.386406,-2.179863 c 1.652733,-0.23469 2.254471,-0.987409 2.254471,-2.820137 0,-1.832728 -0.601738,-2.585447 -2.254471,-2.820137 -1.352279,-0.192025 -2.495585,0.308199 -2.856989,1.25 -0.331384,0.863575 -0.331384,2.276699 0,3.140274 0.361404,0.941801 1.50471,1.442025 2.856989,1.25 z M -22.094323,9.363214 c 1.807178,0 2.333333,-0.550429 2.333333,-2.440983 0,-1.342541 -0.454027,-2.721587 -1.008949,-3.064548 -0.554921,-0.34296 -1.904921,-0.339193 -3,0.0084 -1.095078,0.347536 -1.991051,1.426582 -1.991051,2.397852 0,0.97127 0.3,2.065946 0.666667,2.432612 0.366666,0.366667 1.716666,0.666667 3,0.666667 z M -3.515461,-7.816649 c 1.652733,-0.23469 2.254471,-0.987409 2.254471,-2.820137 0,-1.832728 -0.601738,-2.585447 -2.254471,-2.820137 -1.352279,-0.192025 -2.495586,0.308199 -2.856989,1.25 -0.331384,0.863575 -0.331384,2.2766986 0,3.140274 0.361403,0.941801 1.50471,1.442025 2.856989,1.25 z"
       style="fill:#cfcfcf" /><path
       id="path12548"
       d="m -42.172196,27.363214 c -0.848478,0 -2.309594,-1.170446 -3.246923,-2.600991 -1.367437,-2.086973 -1.465144,-2.926875 -0.494407,-4.25 0.665405,-0.906955 1.984437,-2.994643 2.931182,-4.639307 0.946744,-1.644665 3.176202,-4.419729 4.954349,-6.16681 1.778147,-1.747081 4.685369,-3.495506 6.460494,-3.885389 1.775124,-0.389883 4.459205,-1.619518 5.964624,-2.732522 2.589863,-1.914769 2.873963,-1.933984 5.280529,-0.357141 2.24667,1.472074 2.9332,1.503634 5.884481,0.270511 1.837592,-0.767795 4.344111,-2.671142 5.570041,-4.22966 1.463041,-1.859956 2.008428,-3.533805 1.587167,-4.87118 -0.352989,-1.120631 -0.86935,-2.978986 -1.14747,-4.129677 -0.290511,-1.201961 0.199728,-2.797566 1.152162,-3.75 0.911809,-0.911809 2.493548,-1.657834 3.514977,-1.657834 1.021429,0 2.564286,0.707143 3.428571,1.571429 0.864286,0.864285 1.571429,2.407142 1.571429,3.428571 0,1.021429 -0.779518,2.636661 -1.732262,3.589405 -0.952744,0.952744 -2.478763,3.399626 -3.391153,5.437516 -0.912391,2.03789 -3.212849,4.890515 -5.112129,6.339167 -1.899281,1.448651 -4.137575,2.633912 -4.973988,2.633912 -0.836413,0 -2.664915,0.9 -4.063339,2 -1.398423,1.1 -3.490215,2 -4.648427,2 -1.158212,0 -2.977125,-0.544127 -4.04203,-1.209171 -1.561948,-0.975452 -2.612947,-0.886447 -5.437483,0.46048 -1.925712,0.918308 -4.265214,2.835541 -5.198895,4.260517 -1.278198,1.950777 -1.413819,2.874649 -0.548948,3.739521 0.63176,0.631759 1.148654,2.39282 1.148654,3.913469 0,1.710037 -0.737921,3.15974 -1.934258,3.8 -1.063843,0.569351 -2.628469,1.035184 -3.476948,1.035184 z m 0.257377,-2 c 1.049917,0 2.421804,-0.617963 3.048637,-1.373252 0.626834,-0.755288 0.858789,-2.105288 0.515456,-3 -0.343333,-0.894711 -1.71522,-1.626748 -3.048638,-1.626748 -1.333417,0 -2.683417,0.675 -3,1.5 -0.316582,0.825 -0.316582,2.175 0,3 0.316583,0.825 1.434627,1.5 2.484545,1.5 z m 19.3324,-15.015313 c 0.373215,0.0084 1.384823,-0.690938 2.248018,-1.554133 1.2062,-1.2062 1.322796,-2.030315 0.503767,-3.560684 -0.672181,-1.255982 -1.871498,-1.87652 -3.248017,-1.680554 -1.422617,0.202528 -2.299828,1.141622 -2.519831,2.697594 -0.185621,1.3128 0.264379,2.76841 1,3.234687 0.735621,0.466278 1.642849,0.854668 2.016063,0.86309 z m 19.233924,-18.18643 c 1.48047,-0.211526 2.087505,-1.025243 2.087505,-2.798257 0,-1.773014 -0.607035,-2.586732 -2.087505,-2.798257 -1.148128,-0.164042 -2.665729,0.398458 -3.372445,1.25 -1.046586,1.261058 -1.046586,1.835455 0,3.096514 0.706716,0.851541 2.224317,1.414041 3.372445,1.25 z"
       style="fill:#ababab" /><path
       id="path12546"
       d="m -41.082419,27.284267 c -0.648214,-0.04342 -1.746228,-0.30764 -2.44003,-0.587153 -0.693803,-0.279514 -1.741904,-1.405926 -2.329115,-2.503139 -0.852435,-1.592789 -0.580033,-2.734323 1.351312,-5.662847 1.330432,-2.017353 3.172616,-4.899626 4.09374,-6.405051 0.921125,-1.505426 3.450264,-3.642926 5.620309,-4.75 2.170045,-1.107075 4.431686,-2.012863 5.025867,-2.012863 0.594182,0 2.367611,-0.951727 3.940953,-2.114949 2.76089,-2.041214 2.96314,-2.05439 5.801149,-0.377937 2.794777,1.650915 3.124331,1.649792 6.648766,-0.02266 2.287782,-1.085623 4.412406,-3.143415 5.546536,-5.372063 1.562915,-3.071242 1.630344,-3.805549 0.45012,-4.901816 -0.763498,-0.709186 -1.388178,-2.139543 -1.388178,-3.178573 0,-1.03903 0.707143,-2.596288 1.571429,-3.460573 0.864285,-0.864286 2.369541,-1.571429 3.345012,-1.571429 0.975471,0 2.518328,0.822933 3.428571,1.828741 0.910244,1.005807 1.654988,2.525707 1.654988,3.377555 0,0.851848 -0.700999,2.130592 -1.557775,2.841653 -0.856776,0.711061 -2.223938,2.887192 -3.038138,4.835846 -0.8142,1.948655 -2.250701,4.41195 -3.192225,5.47399 -0.941524,1.06204 -4.032989,2.967038 -6.869922,4.233329 -2.836933,1.26629 -5.450991,2.776317 -5.809017,3.355616 -0.358026,0.579298 -1.884399,1.05327 -3.39194,1.05327 -1.507541,0 -3.236507,-0.495524 -3.842146,-1.101163 -0.649771,-0.649771 -2.360368,-0.824596 -4.172968,-0.426482 -1.689492,0.371074 -4.208969,2.026124 -5.598837,3.677888 -1.389867,1.651764 -2.527032,3.392124 -2.527032,3.867465 0,0.475342 0.45,1.142373 1,1.482292 0.55,0.339919 1,1.684333 1,2.987588 0,1.303255 -0.707143,3.076698 -1.571429,3.940983 -0.864285,0.864286 -2.101785,1.535903 -2.75,1.492482 z m 0.275455,-2.125143 c 1.56461,-0.183079 2.668921,-1.033309 2.896164,-2.229813 0.20201,-1.063646 -0.418805,-2.50871 -1.37959,-3.211253 -1.229406,-0.898964 -2.298416,-0.982178 -3.60874,-0.280914 -1.024023,0.548041 -1.86186,1.805605 -1.86186,2.794587 0,0.988982 0.320659,2.118809 0.712576,2.510726 0.391917,0.391917 1.850569,0.579417 3.24145,0.416667 z m 18.76079,-14.811223 c 0.668149,0.0084 1.711876,-0.913452 2.319394,-2.048609 0.825573,-1.542598 0.793416,-2.43885 -0.127311,-3.548257 -0.677538,-0.816384 -2.171266,-1.350119 -3.319394,-1.186078 -1.326637,0.189546 -2.210516,1.168254 -2.424997,2.685167 -0.185621,1.3128 0.264379,2.76841 1,3.234687 0.735621,0.466278 1.884159,0.854668 2.552308,0.86309 z M -3.466361,-6.901662 c 0.584367,-0.194789 1.542333,-1.114879 2.128813,-2.044643 0.755104,-1.197089 0.755104,-2.183874 0,-3.380962 -0.58648,-0.929765 -1.544446,-1.849854 -2.128813,-2.044643 -0.584368,-0.194789 -1.789718,0.37307 -2.678558,1.26191 -0.888839,0.888839 -1.616071,2.001785 -1.616071,2.473214 0,0.471429 0.727232,1.584375 1.616071,2.473214 0.88884,0.88884 2.09419,1.456699 2.678558,1.26191 z"
       style="fill:#8f8f8f" /><path
       id="path12544"
       d="m -41.082419,27.284267 c -0.648214,-0.04342 -1.746228,-0.30764 -2.44003,-0.587153 -0.693803,-0.279514 -1.730897,-1.385359 -2.304655,-2.457436 -0.827809,-1.546775 -0.464124,-2.900855 1.761459,-6.558294 1.54256,-2.534985 3.966941,-5.853015 5.387514,-7.373399 1.420572,-1.520384 4.570572,-3.344815 7,-4.054292 2.429427,-0.709476 4.777002,-1.875074 5.216831,-2.590218 0.43983,-0.715143 1.908436,-1.300261 3.263569,-1.300261 1.355133,0 3.371725,0.5625 4.481315,1.25 1.694559,1.049946 2.603324,0.911855 5.678239,-0.86283 2.013442,-1.162056 4.464922,-3.612195 5.447733,-5.444753 1.581876,-2.949577 1.617241,-3.519428 0.308192,-4.965911 -0.813306,-0.898693 -1.478738,-2.3163096 -1.478738,-3.150259 0,-0.83395 0.822933,-2.261016 1.828741,-3.171259 1.005807,-0.910244 2.511063,-1.654988 3.345012,-1.654988 0.83395,0 2.261016,0.822933 3.171259,1.828741 0.910244,1.005807 1.654988,2.511063 1.654988,3.345012 0,0.83395 -0.9,2.330761 -2,3.326247 -1.1,0.995486 -2,2.347713 -2,3.004949 0,0.657236 -1.31663,3.012529 -2.925844,5.233984 -2.032741,2.806118 -4.398399,4.590883 -7.75,5.846968 -2.653286,0.994377 -5.184017,2.394339 -5.623846,3.111028 -0.43983,0.716689 -1.532881,1.303071 -2.429002,1.303071 -0.896122,0 -3.137017,-0.545193 -4.979767,-1.21154 -2.855136,-1.032431 -3.845934,-0.944707 -6.701996,0.593383 -1.843347,0.992708 -3.901028,2.831651 -4.572624,4.08654 -0.90619,1.693231 -0.936878,2.812661 -0.119003,4.340876 0.606145,1.132592 1.102082,2.731699 1.102082,3.553571 0,0.821872 -0.707143,2.201456 -1.571429,3.065741 -0.864285,0.864286 -2.101785,1.535903 -2.75,1.492482 z m 1.459569,-1.994983 c 1.024023,-0.548041 1.86186,-1.825505 1.86186,-2.838809 0,-1.013304 -0.71272,-2.433877 -1.583823,-3.156828 -1.148149,-0.952879 -2.042149,-1.025846 -3.25,-0.265261 -0.916397,0.577057 -1.82761,1.871218 -2.024918,2.875914 -0.197307,1.004696 0.427356,2.401527 1.388141,3.10407 1.229406,0.898964 2.298416,0.982178 3.60874,0.280914 z m 16.774599,-14.92607 c 1.013304,0 2.433877,-0.71272 3.156828,-1.583823 0.952879,-1.148149 1.025846,-2.042149 0.265261,-3.25 -0.577057,-0.916397 -1.871218,-1.82761 -2.875914,-2.024918 -1.004696,-0.197307 -2.401527,0.427356 -3.10407,1.388141 -0.898964,1.229406 -0.982178,2.298416 -0.280914,3.60874 0.548041,1.024023 1.825505,1.86186 2.838809,1.86186 z m 19.087261,-17 c 0.471429,0 1.564286,-0.707143 2.428571,-1.571429 0.864286,-0.864285 1.571429,-1.957142 1.571429,-2.428571 0,-0.471429 -0.707143,-1.564286 -1.571429,-2.428571 -0.864285,-0.864286 -1.957142,-1.571429 -2.428571,-1.571429 -0.471429,0 -1.564286,0.707143 -2.428571,1.571429 -0.864286,0.864285 -1.571429,1.957142 -1.571429,2.428571 0,0.471429 0.707143,1.564286 1.571429,2.428571 0.864285,0.864286 1.957142,1.571429 2.428571,1.571429 z"
       style="fill:#707070" /><path
       id="path12542"
       d="m -39.954503,26.364914 -2.306487,1.13253 2.355339,-1.900874 c 1.324173,-1.068672 2.199772,-2.692879 2,-3.709932 -0.195436,-0.994981 -1.255339,-2.30729 -2.355339,-2.916241 -1.1,-0.608951 -2.145681,-1.177864 -2.323736,-1.264253 -0.178055,-0.08639 0.341688,-1.436388 1.154986,-3 0.813297,-1.563611 2.533978,-3.801593 3.823736,-4.973292 1.289758,-1.1717 4.145014,-2.744228 6.345014,-3.494508 2.2,-0.75028 4.359861,-1.929117 4.79969,-2.619638 0.43983,-0.69052 1.908436,-1.255492 3.263569,-1.255492 1.355133,0 3.364516,0.562457 4.465295,1.249905 1.670885,1.043485 2.610989,0.919623 5.692457,-0.75 2.030071,-1.099948 4.550859,-3.481425 5.601751,-5.292172 1.764227,-3.039866 1.786765,-3.429226 0.293975,-5.07874 -0.889206,-0.982561 -1.616737,-2.4687966 -1.616737,-3.302746 0,-0.83395 0.822933,-2.261016 1.828741,-3.171259 1.005807,-0.910244 2.525707,-1.654988 3.377555,-1.654988 0.851848,0 2.166415,0.747295 2.921259,1.660655 1.256465,1.520321 1.182015,1.542063 -0.881011,0.257295 -1.68853,-1.051548 -2.691303,-1.128893 -4,-0.308528 -0.960599,0.602158 -1.88076,1.988253 -2.044801,3.080211 -0.164041,1.0919579 0.376864,2.545679 1.202012,3.230491 0.825148,0.684812 2.357515,0.973033 3.405261,0.640492 1.047745,-0.332541 2.388883,-1.60722 2.980307,-2.8326183 0.591424,-1.2253987 1.105773,-1.6654977 1.142997,-0.9779977 0.03722,0.6875 -0.71982,2.041182 -1.68232,3.008183 -0.9625,0.967001 -2.617814,3.693547 -3.678476,6.058992 -1.060662,2.365445 -3.085662,5.1118 -4.5,6.103011 -1.414338,0.991212 -4.223028,2.337684 -6.241532,2.992161 -2.018504,0.654477 -4.211104,1.841939 -4.872445,2.638805 -0.66134,0.796867 -1.899403,1.448848 -2.751251,1.448848 -0.851848,0 -2.335612,-0.712042 -3.297254,-1.582316 -1.599606,-1.447623 -2.137883,-1.410045 -6.323503,0.441453 -2.738436,1.21134 -5.044611,3.05431 -5.744709,4.590859 -0.912147,2.001943 -0.884047,3.100735 0.127638,4.991087 0.713506,1.333197 1.037909,3.099917 0.720895,3.926042 -0.317014,0.826125 -1.614309,2.011684 -2.882876,2.634575 z m 17.106252,-16.0017 c 1.013304,0 2.38465,-0.653406 3.047435,-1.452012 0.662784,-0.798607 0.91256,-2.373607 0.555057,-3.5 -0.40797,-1.285399 -1.510221,-2.047988 -2.960174,-2.047988 -1.270592,0 -2.846495,0.646235 -3.502006,1.436078 -0.884668,1.06596 -0.907158,1.968009 -0.08726,3.5 0.607517,1.135157 1.933644,2.063922 2.946948,2.063922 z m -20.814295,16 c -0.539226,0 -1.277029,-0.479939 -1.639563,-1.066531 -0.362533,-0.586592 -0.501591,-1.216206 -0.309016,-1.399141 0.192574,-0.182935 0.930377,0.297004 1.639562,1.066531 0.709184,0.769528 0.848242,1.399141 0.309017,1.399141 z m -1.705433,-5 c -0.216156,0 -0.393011,-0.423442 -0.393011,-0.940983 0,-0.517541 0.444846,-1.215913 0.988546,-1.551938 0.56686,-0.350339 0.734507,0.05106 0.393011,0.940983 -0.327544,0.853566 -0.77239,1.551938 -0.988546,1.551938 z"
       style="fill:#4e4e4e" /><path
       id="path12540"
       d="m -43.76099,26.363214 c -0.733333,0 -1.033333,-0.3 -0.666667,-0.666667 0.366667,-0.366666 0.966667,-0.366666 1.333334,0 0.366666,0.366667 0.06667,0.666667 -0.666667,0.666667 z m 5.25,-0.872445 c -1.584886,1.242954 -1.620926,1.207834 -0.381976,-0.372229 0.752414,-0.95957 1.13188,-2.647691 0.843259,-3.75138 -0.288621,-1.103688 -0.116732,-1.754527 0.381976,-1.446309 0.498707,0.308218 0.906741,1.378739 0.906741,2.378935 0,1.000196 -0.7875,2.436139 -1.75,3.190983 z m -6.75,-1.127555 c -0.275,0 -0.5,-0.225 -0.5,-0.5 0,-0.275 0.225,-0.5 0.5,-0.5 0.275,0 0.5,0.225 0.5,0.5 0,0.275 -0.225,0.5 -0.5,0.5 z m 0,-3 c -0.275,0 -0.5,-0.225 -0.5,-0.5 0,-0.275 0.225,-0.5 0.5,-0.5 0.275,0 0.5,0.225 0.5,0.5 0,0.275 -0.225,0.5 -0.5,0.5 z m 4.049502,-3 c -1.222921,0 -1.306996,-0.50764 -0.455148,-2.74817 0.574669,-1.511494 1.799969,-3.582564 2.722889,-4.602379 0.92292,-1.019815 2.804098,-2.419986 4.180396,-3.11149 1.376299,-0.691505 3.627361,-1.525265 5.002361,-1.852801 2.000091,-0.476438 2.738022,-0.08999 3.690329,1.932582 0.955981,2.030379 0.940655,2.320892 -0.07784,1.475612 -0.846569,-0.702589 -2.368567,-0.736901 -4.578121,-0.103209 -1.820472,0.522104 -4.199585,1.75041 -5.286919,2.729568 -1.087338,0.979158 -2.364194,2.792787 -2.837461,4.030287 -0.473268,1.2375 -1.535486,2.25 -2.360486,2.25 z m 18.867165,-7.078947 c -1.164943,-0.04798 -1.4019,-0.284941 -0.604167,-0.604167 0.721875,-0.288871 1.584375,-0.253344 1.916667,0.07895 0.332291,0.332292 -0.258334,0.568641 -1.3125,0.52522 z m 3.970333,-2.774421 c -0.774272,0.605823 -0.967046,0.107352 -0.633423,-1.637887 0.346895,-1.814661 1.117761,-2.508745 2.786275,-2.508745 1.268684,0 3.729964,-1.1976 5.469512,-2.661333 1.739549,-1.463734 3.583748,-3.76847 4.098221,-5.121637 0.655339,-1.723672 0.554711,-2.921096 -0.33609,-3.999322 -1.135336,-1.374212 -1.003781,-1.387958 1.228505,-0.128363 1.375,0.77586 2.638861,1.474516 2.808581,1.552569 0.16972,0.07805 -0.331592,1.674064 -1.114026,3.546692 -0.782433,1.872627 -2.868477,4.621397 -4.635653,6.108377 -1.767175,1.486981 -4.415864,2.990519 -5.885974,3.341196 -1.47011,0.350678 -3.173778,1.029482 -3.785928,1.508453 z m -5.887,-5.146632 c -0.275,0 -0.5,-0.225 -0.5,-0.5 0,-0.275 0.225,-0.5 0.5,-0.5 0.275,0 0.5,0.225 0.5,0.5 0,0.275 -0.225,0.5 -0.5,0.5 z m 3,0 c -0.275,0 -0.5,-0.225 -0.5,-0.5 0,-0.275 0.225,-0.5 0.5,-0.5 0.275,0 0.5,0.225 0.5,0.5 0,0.275 -0.225,0.5 -0.5,0.5 z m 20,-10 c -0.275,0 -0.5,-0.225 -0.5,-0.5 0,-0.275 0.225,-0.5 0.5,-0.5 0.275,0 0.5,0.225 0.5,0.5 0,0.275 -0.225,0.5 -0.5,0.5 z m -6.833333,-3.3333333 c -0.366667,0.3666663 -0.666667,0.066667 -0.666667,-0.6666667 0,-0.733333 0.3,-1.033333 0.666667,-0.666667 0.366666,0.366667 0.366666,0.966667 0,1.3333337 z m 9,0 C 0.53901,-9.603453 0.23901,-9.9034527 0.23901,-10.636786 c 0,-0.733333 0.3,-1.033333 0.666667,-0.666667 0.366666,0.366667 0.366666,0.966667 0,1.3333337 z m -8.284701,-2.6666667 c -0.275,0 -0.221885,-0.45 0.118034,-1 0.339919,-0.55 0.843034,-1 1.118034,-1 0.275,0 0.221885,0.45 -0.118034,1 -0.339919,0.55 -0.843034,1 -1.118034,1 z m 7.177051,0 c -0.242541,0 -0.762069,-0.519529 -1.154509,-1.154509 -0.442079,-0.715299 -0.274316,-0.883062 0.440984,-0.440983 0.634979,0.392439 1.154508,0.911968 1.154508,1.154509 0,0.242541 -0.198442,0.440983 -0.440983,0.440983 z m -3.559017,-2 c -0.733333,0 -1.033333,-0.3 -0.666667,-0.666667 0.366667,-0.366666 0.966667,-0.366666 1.333334,0 0.366666,0.366667 0.066666,0.666667 -0.666667,0.666667 z"
       style="fill:#333" /></g></svg>