<?xml version="1.0" encoding="UTF-8" standalone="no"?>
<!-- Generator: Adobe Illustrator 16.0.0, SVG Export Plug-In . SVG Version: 6.00 Build 0)  -->

<svg
   xmlns:dc="http://purl.org/dc/elements/1.1/"
   xmlns:cc="http://creativecommons.org/ns#"
   xmlns:rdf="http://www.w3.org/1999/02/22-rdf-syntax-ns#"
   xmlns:svg="http://www.w3.org/2000/svg"
   xmlns="http://www.w3.org/2000/svg"
   xmlns:sodipodi="http://sodipodi.sourceforge.net/DTD/sodipodi-0.dtd"
   xmlns:inkscape="http://www.inkscape.org/namespaces/inkscape"
   version="1.1"
   id="Layer_1"
   x="0px"
   y="0px"
   width="24px"
   height="24px"
   viewBox="0 0 24 24"
   enable-background="new 0 0 24 24"
   xml:space="preserve"
   inkscape:version="0.48.5 r10040"
   sodipodi:docname="Periodogram.svg"><metadata
     id="metadata4212"><rdf:RDF><cc:Work
         rdf:about=""><dc:format>image/svg+xml</dc:format><dc:type
           rdf:resource="http://purl.org/dc/dcmitype/StillImage" /><dc:title /></cc:Work></rdf:RDF></metadata><defs
     id="defs4210"><marker
       inkscape:stockid="DotM"
       orient="auto"
       refY="0.0"
       refX="0.0"
       id="DotM"
       style="overflow:visible"><path
         id="path6409"
         d="M -2.5,-1.0 C -2.5,1.7600000 -4.7400000,4.0 -7.5,4.0 C -10.260000,4.0 -12.5,1.7600000 -12.5,-1.0 C -12.5,-3.7600000 -10.260000,-6.0 -7.5,-6.0 C -4.7400000,-6.0 -2.5,-3.7600000 -2.5,-1.0 z "
         style="fill-rule:evenodd;stroke:#000000;stroke-width:1.0pt"
         transform="scale(0.4) translate(7.4, 1)" /></marker><marker
       inkscape:stockid="DotS"
       orient="auto"
       refY="0.0"
       refX="0.0"
       id="DotS"
       style="overflow:visible"><path
         id="path6412"
         d="M -2.5,-1.0 C -2.5,1.7600000 -4.7400000,4.0 -7.5,4.0 C -10.260000,4.0 -12.5,1.7600000 -12.5,-1.0 C -12.5,-3.7600000 -10.260000,-6.0 -7.5,-6.0 C -4.7400000,-6.0 -2.5,-3.7600000 -2.5,-1.0 z "
         style="fill-rule:evenodd;stroke:#000000;stroke-width:1.0pt"
         transform="scale(0.2) translate(7.4, 1)" /></marker><marker
       inkscape:stockid="DotL"
       orient="auto"
       refY="0.0"
       refX="0.0"
       id="DotL"
       style="overflow:visible"><path
         id="path6406"
         d="M -2.5,-1.0 C -2.5,1.7600000 -4.7400000,4.0 -7.5,4.0 C -10.260000,4.0 -12.5,1.7600000 -12.5,-1.0 C -12.5,-3.7600000 -10.260000,-6.0 -7.5,-6.0 C -4.7400000,-6.0 -2.5,-3.7600000 -2.5,-1.0 z "
         style="fill-rule:evenodd;stroke:#000000;stroke-width:1.0pt"
         transform="scale(0.8) translate(7.4, 1)" /></marker><clipPath
       clipPathUnits="userSpaceOnUse"
       id="clipPath4840"><rect
         style="fill:none;stroke:#333;stroke-width:0.01;stroke-linecap:round;stroke-linejoin:miter;stroke-miterlimit:4;stroke-opacity:1;stroke-dasharray:none"
         id="rect4842"
         width="22"
         height="22"
         x="1"
         y="1" /></clipPath><clipPath
       clipPathUnits="userSpaceOnUse"
       id="clipPath6233"><rect
         style="fill:#1a1a1a;fill-opacity:1;stroke:#ff0d0d;stroke-width:0.1;stroke-linecap:round;stroke-linejoin:miter;stroke-miterlimit:4;stroke-opacity:1;stroke-dasharray:none"
         id="rect6235"
         width="24.130018"
         height="22.185474"
         x="2.6516504"
         y="-1.6326209" /></clipPath><clipPath
       clipPathUnits="userSpaceOnUse"
       id="clipPath6237"><rect
         style="fill:#1a1a1a;fill-opacity:1;stroke:#ff0d0d;stroke-width:0.1;stroke-linecap:round;stroke-linejoin:miter;stroke-miterlimit:4;stroke-opacity:1;stroke-dasharray:none"
         id="rect6239"
         width="24.130018"
         height="22.185474"
         x="-26.476313"
         y="-0.58566791" /></clipPath><marker
       inkscape:stockid="DotS"
       orient="auto"
       refY="0"
       refX="0"
       id="DotS-7"
       style="overflow:visible"><path
         inkscape:connector-curvature="0"
         id="path6412-5"
         d="m -2.5,-1 c 0,2.76 -2.24,5 -5,5 -2.76,0 -5,-2.24 -5,-5 0,-2.76 2.24,-5 5,-5 2.76,0 5,2.24 5,5 z"
         style="fill-rule:evenodd;stroke:black;stroke-width:1pt"
         transform="matrix(0.2,0,0,0.2,1.48,0.2)" /></marker><marker
       inkscape:stockid="DotS"
       orient="auto"
       refY="0"
       refX="0"
       id="DotS-9"
       style="overflow:visible"><path
         inkscape:connector-curvature="0"
         id="path6412-9"
         d="m -2.5,-1 c 0,2.76 -2.24,5 -5,5 -2.76,0 -5,-2.24 -5,-5 0,-2.76 2.24,-5 5,-5 2.76,0 5,2.24 5,5 z"
         style="fill-rule:evenodd;stroke:black;stroke-width:1pt"
         transform="matrix(0.2,0,0,0.2,1.48,0.2)" /></marker><marker
       inkscape:stockid="DotS"
       orient="auto"
       refY="0"
       refX="0"
       id="DotS-4"
       style="overflow:visible"><path
         inkscape:connector-curvature="0"
         id="path6412-1"
         d="m -2.5,-1 c 0,2.76 -2.24,5 -5,5 -2.76,0 -5,-2.24 -5,-5 0,-2.76 2.24,-5 5,-5 2.76,0 5,2.24 5,5 z"
         style="fill-rule:evenodd;stroke:black;stroke-width:1pt"
         transform="matrix(0.2,0,0,0.2,1.48,0.2)" /></marker></defs><sodipodi:namedview
     pagecolor="#ffffff"
     bordercolor="#666666"
     borderopacity="1"
     objecttolerance="10"
     gridtolerance="10"
     guidetolerance="10"
     inkscape:pageopacity="0"
     inkscape:pageshadow="2"
     inkscape:window-width="1918"
     inkscape:window-height="1042"
     id="namedview4208"
     showgrid="true"
     inkscape:zoom="22.627417"
     inkscape:cx="6.5505872"
     inkscape:cy="9.7794467"
     inkscape:window-x="0"
     inkscape:window-y="37"
     inkscape:window-maximized="0"
     inkscape:current-layer="g5188"
     inkscape:snap-global="false"><inkscape:grid
       type="xygrid"
       id="grid4788" /></sodipodi:namedview><g
     id="g5188"
     transform="translate(29.127963,-1.046953)"><rect
       style="fill:#1a1a1a"
       id="rect6184"
       height="18.022526"
       width="1.0010693"
       y="4.0590701"
       x="-26.206797" /><rect
       style="fill:#1a1a1a"
       id="rect6218"
       height="1.0010693"
       width="18.022526"
       y="21.080523"
       x="-26.206797" /><path
       style="fill:black;fill-rule:nonzero;stroke:#1a1a1a;stroke-width:0.49152341;stroke-linecap:butt;stroke-linejoin:miter;stroke-miterlimit:4;stroke-opacity:1;stroke-dasharray:none;marker-start:url(#DotS-4)"
       d="m -22.53862,9.3333324 0,11.7362866"
       id="path6339"
       inkscape:connector-curvature="0" /><path
       style="fill:black;fill-rule:nonzero;stroke:#1a1a1a;stroke-width:0.45056313;stroke-linecap:butt;stroke-linejoin:miter;stroke-miterlimit:4;stroke-opacity:1;stroke-dasharray:none;marker-start:url(#DotS-4)"
       d="m -19.28615,12.360671 0,9.012923"
       id="path6339-2"
       inkscape:connector-curvature="0" /><path
       style="fill:black;fill-rule:nonzero;stroke:#1a1a1a;stroke-width:0.40960282;stroke-linecap:butt;stroke-linejoin:miter;stroke-miterlimit:4;stroke-opacity:1;stroke-dasharray:none;marker-start:url(#DotS-4)"
       d="m -15.991574,14.972979 0,6.490965"
       id="path6339-5"
       inkscape:connector-curvature="0" /><path
       style="fill:black;fill-rule:nonzero;stroke:#1a1a1a;stroke-width:0.36864254;stroke-linecap:butt;stroke-linejoin:miter;stroke-miterlimit:4;stroke-opacity:1;stroke-dasharray:none;marker-start:url(#DotS-4)"
       d="m -12.552182,17.575902 0,3.80237"
       id="path6339-8"
       inkscape:connector-curvature="0" /></g></svg>