<?xml version="1.0" encoding="UTF-8" standalone="no"?>
<svg
   xmlns:dc="http://purl.org/dc/elements/1.1/"
   xmlns:cc="http://creativecommons.org/ns#"
   xmlns:rdf="http://www.w3.org/1999/02/22-rdf-syntax-ns#"
   xmlns:svg="http://www.w3.org/2000/svg"
   xmlns="http://www.w3.org/2000/svg"
   version="1.1"
   id="Layer_1"
   x="0px"
   y="0px"
   width="24px"
   height="24px"
   viewBox="0 0 24 24"
   enable-background="new 0 0 24 24"
   xml:space="preserve"><metadata
     id="metadata4212"><rdf:RDF><cc:Work
         rdf:about=""><dc:format>image/svg+xml</dc:format><dc:type
           rdf:resource="http://purl.org/dc/dcmitype/StillImage" /><dc:title></dc:title></cc:Work></rdf:RDF></metadata><defs
     id="defs4210"><marker
       orient="auto"
       refY="0.0"
       refX="0.0"
       id="DotM"
       style="overflow:visible"><path
         id="path6409"
         d="M -2.5,-1.0 C -2.5,1.7600000 -4.7400000,4.0 -7.5,4.0 C -10.260000,4.0 -12.5,1.7600000 -12.5,-1.0 C -12.5,-3.7600000 -10.260000,-6.0 -7.5,-6.0 C -4.7400000,-6.0 -2.5,-3.7600000 -2.5,-1.0 z "
         style="fill-rule:evenodd;stroke:#000000;stroke-width:1.0pt"
         transform="scale(0.4) translate(7.4, 1)" /></marker><marker
       orient="auto"
       refY="0.0"
       refX="0.0"
       id="DotS"
       style="overflow:visible"><path
         id="path6412"
         d="M -2.5,-1.0 C -2.5,1.7600000 -4.7400000,4.0 -7.5,4.0 C -10.260000,4.0 -12.5,1.7600000 -12.5,-1.0 C -12.5,-3.7600000 -10.260000,-6.0 -7.5,-6.0 C -4.7400000,-6.0 -2.5,-3.7600000 -2.5,-1.0 z "
         style="fill-rule:evenodd;stroke:#000000;stroke-width:1.0pt"
         transform="scale(0.2) translate(7.4, 1)" /></marker><marker
       orient="auto"
       refY="0.0"
       refX="0.0"
       id="DotL"
       style="overflow:visible"><path
         id="path6406"
         d="M -2.5,-1.0 C -2.5,1.7600000 -4.7400000,4.0 -7.5,4.0 C -10.260000,4.0 -12.5,1.7600000 -12.5,-1.0 C -12.5,-3.7600000 -10.260000,-6.0 -7.5,-6.0 C -4.7400000,-6.0 -2.5,-3.7600000 -2.5,-1.0 z "
         style="fill-rule:evenodd;stroke:#000000;stroke-width:1.0pt"
         transform="scale(0.8) translate(7.4, 1)" /></marker><clipPath
       clipPathUnits="userSpaceOnUse"
       id="clipPath4840"><rect
         style="fill:none;stroke:#333;stroke-width:0.01;stroke-linecap:round;stroke-linejoin:miter;stroke-miterlimit:4;stroke-opacity:1;stroke-dasharray:none"
         id="rect4842"
         width="22"
         height="22"
         x="1"
         y="1" /></clipPath><clipPath
       clipPathUnits="userSpaceOnUse"
       id="clipPath6233"><rect
         style="fill:#1a1a1a;fill-opacity:1;stroke:#ff0d0d;stroke-width:0.1;stroke-linecap:round;stroke-linejoin:miter;stroke-miterlimit:4;stroke-opacity:1;stroke-dasharray:none"
         id="rect6235"
         width="24.130018"
         height="22.185474"
         x="2.6516504"
         y="-1.6326209" /></clipPath><clipPath
       clipPathUnits="userSpaceOnUse"
       id="clipPath6237"><rect
         style="fill:#1a1a1a;fill-opacity:1;stroke:#ff0d0d;stroke-width:0.1;stroke-linecap:round;stroke-linejoin:miter;stroke-miterlimit:4;stroke-opacity:1;stroke-dasharray:none"
         id="rect6239"
         width="24.130018"
         height="22.185474"
         x="-26.476313"
         y="-0.58566791" /></clipPath><marker
       orient="auto"
       refY="0"
       refX="0"
       id="DotS-7"
       style="overflow:visible"><path
         id="path6412-5"
         d="m -2.5,-1 c 0,2.76 -2.24,5 -5,5 -2.76,0 -5,-2.24 -5,-5 0,-2.76 2.24,-5 5,-5 2.76,0 5,2.24 5,5 z"
         style="fill-rule:evenodd;stroke:black;stroke-width:1pt"
         transform="matrix(0.2,0,0,0.2,1.48,0.2)" /></marker><marker
       orient="auto"
       refY="0"
       refX="0"
       id="DotS-9"
       style="overflow:visible"><path
         id="path6412-9"
         d="m -2.5,-1 c 0,2.76 -2.24,5 -5,5 -2.76,0 -5,-2.24 -5,-5 0,-2.76 2.24,-5 5,-5 2.76,0 5,2.24 5,5 z"
         style="fill-rule:evenodd;stroke:black;stroke-width:1pt"
         transform="matrix(0.2,0,0,0.2,1.48,0.2)" /></marker><marker
       orient="auto"
       refY="0"
       refX="0"
       id="DotS-4"
       style="overflow:visible"><path
         id="path6412-1"
         d="m -2.5,-1 c 0,2.76 -2.24,5 -5,5 -2.76,0 -5,-2.24 -5,-5 0,-2.76 2.24,-5 5,-5 2.76,0 5,2.24 5,5 z"
         style="fill-rule:evenodd;stroke:black;stroke-width:1pt"
         transform="matrix(0.2,0,0,0.2,1.48,0.2)" /></marker><clipPath
       clipPathUnits="userSpaceOnUse"
       id="clipPath7276"><rect
         style="opacity:1;fill:red;fill-opacity:1;stroke:white;stroke-width:0;stroke-linecap:round;stroke-linejoin:round;stroke-miterlimit:4;stroke-dasharray:none;stroke-opacity:1"
         id="rect7278"
         width="8.906249"
         height="9.374999"
         x="-43.096714"
         y="6.5469537" /></clipPath></defs><g
     transform="matrix(0.7416768,0,0,1.0656912,2.5227504,26.926184)"
     id="g20056"><path
       style="fill:none;fill-rule:evenodd;stroke:#666;stroke-width:1px;stroke-linecap:butt;stroke-linejoin:miter;stroke-opacity:1"
       d="m 1.1186441,-5.0847457 c 0,0 3.4576271,-19.2203393 7.3220339,-6.7118643 3.864407,12.50847441 4.677966,-17.694916 9.254237,-5.084746 4.489182,12.3701908 6.915255,-5.694915 6.915255,-5.694915"
       id="path20012" /><path
       style="fill:none;fill-rule:evenodd;stroke:black;stroke-width:1.00000002;stroke-linecap:butt;stroke-linejoin:miter;stroke-miterlimit:4;stroke-dasharray:1.00000002,1.00000002;stroke-dashoffset:0;stroke-opacity:1"
       d="M -0.71186445,-6.8135593 26.542373,-20.847458"
       id="path20050" /></g></svg>