<?xml version="1.0" encoding="UTF-8" standalone="no"?>
<svg
   xmlns:dc="http://purl.org/dc/elements/1.1/"
   xmlns:cc="http://creativecommons.org/ns#"
   xmlns:rdf="http://www.w3.org/1999/02/22-rdf-syntax-ns#"
   xmlns:svg="http://www.w3.org/2000/svg"
   xmlns="http://www.w3.org/2000/svg"
   xmlns:sodipodi="http://sodipodi.sourceforge.net/DTD/sodipodi-0.dtd"
   xmlns:inkscape="http://www.inkscape.org/namespaces/inkscape"
   xml:space="preserve"
   enable-background="new 0 0 48 48"
   viewBox="0 0 48 48"
   height="48px"
   width="48px"
   y="0px"
   x="0px"
   id="Layer_1"
   version="1.1"
   inkscape:version="0.91 r13725"
   sodipodi:docname="TableToTimeseries.svg"><sodipodi:namedview
     pagecolor="#ffffff"
     bordercolor="#666666"
     borderopacity="1"
     objecttolerance="10"
     gridtolerance="10"
     guidetolerance="10"
     inkscape:pageopacity="0"
     inkscape:pageshadow="2"
     inkscape:window-width="1918"
     inkscape:window-height="1042"
     id="namedview16549"
     showgrid="false"
     inkscape:zoom="13.906433"
     inkscape:cx="8.7575244"
     inkscape:cy="19.825486"
     inkscape:window-x="0"
     inkscape:window-y="37"
     inkscape:window-maximized="0"
     inkscape:current-layer="Layer_1" /><metadata
     id="metadata4295"><rdf:RDF><cc:Work
         rdf:about=""><dc:format>image/svg+xml</dc:format><dc:type
           rdf:resource="http://purl.org/dc/dcmitype/StillImage" /><dc:title /></cc:Work></rdf:RDF></metadata><defs
     id="defs4293"><marker
       style="overflow:visible"
       id="TriangleOutM"
       refX="0.0"
       refY="0.0"
       orient="auto"><path
         transform="scale(0.4)"
         style="fill-rule:evenodd;stroke:#1a1a1a;stroke-width:1pt;stroke-opacity:1"
         d="M 5.77,0.0 L -2.88,5.0 L -2.88,-5.0 L 5.77,0.0 z "
         id="path6747" /></marker><marker
       style="overflow:visible"
       id="TriangleOutL"
       refX="0.0"
       refY="0.0"
       orient="auto"><path
         transform="scale(0.8)"
         style="fill-rule:evenodd;stroke:black;stroke-width:1pt;stroke-opacity:1"
         d="M 5.77,0.0 L -2.88,5.0 L -2.88,-5.0 L 5.77,0.0 z "
         id="path6744" /></marker><marker
       style="overflow:visible;"
       id="marker7316"
       refX="0.0"
       refY="0.0"
       orient="auto"><path
         transform="scale(1.1) rotate(180) translate(1,0)"
         d="M 8.7185878,4.0337352 L -2.2072895,0.016013256 L 8.7185884,-4.0017078 C 6.9730900,-1.6296469 6.9831476,1.6157441 8.7185878,4.0337352 z "
         style="fill-rule:evenodd;stroke-width:0.625;stroke-linejoin:round;stroke:black;stroke-opacity:1"
         id="path7318" /></marker><marker
       style="overflow:visible;"
       id="marker7252"
       refX="0.0"
       refY="0.0"
       orient="auto"><path
         transform="scale(0.2) rotate(180) translate(6,0)"
         style="fill-rule:evenodd;stroke:black;stroke-width:1pt;stroke-opacity:1"
         d="M 0.0,0.0 L 5.0,-5.0 L -12.5,0.0 L 5.0,5.0 L 0.0,0.0 z "
         id="path7254" /></marker><marker
       style="overflow:visible;"
       id="marker7148"
       refX="0.0"
       refY="0.0"
       orient="auto"><path
         transform="scale(0.2) rotate(180) translate(6,0)"
         style="fill-rule:evenodd;stroke:black;stroke-width:1pt;stroke-opacity:1"
         d="M 0.0,0.0 L 5.0,-5.0 L -12.5,0.0 L 5.0,5.0 L 0.0,0.0 z "
         id="path7150" /></marker><marker
       style="overflow:visible;"
       id="Arrow1Mend"
       refX="0.0"
       refY="0.0"
       orient="auto"><path
         transform="scale(0.4) rotate(180) translate(10,0)"
         style="fill-rule:evenodd;stroke:black;stroke-width:1pt;stroke-opacity:1"
         d="M 0.0,0.0 L 5.0,-5.0 L -12.5,0.0 L 5.0,5.0 L 0.0,0.0 z "
         id="path6611" /></marker><marker
       style="overflow:visible;"
       id="Arrow1Send"
       refX="0.0"
       refY="0.0"
       orient="auto"><path
         transform="scale(0.2) rotate(180) translate(6,0)"
         style="fill-rule:evenodd;stroke:black;stroke-width:1pt;stroke-opacity:1"
         d="M 0.0,0.0 L 5.0,-5.0 L -12.5,0.0 L 5.0,5.0 L 0.0,0.0 z "
         id="path6617" /></marker><marker
       style="overflow:visible;"
       id="Arrow2Mend"
       refX="0.0"
       refY="0.0"
       orient="auto"><path
         transform="scale(0.6) rotate(180) translate(0,0)"
         d="M 8.7185878,4.0337352 L -2.2072895,0.016013256 L 8.7185884,-4.0017078 C 6.9730900,-1.6296469 6.9831476,1.6157441 8.7185878,4.0337352 z "
         style="fill-rule:evenodd;stroke-width:0.625;stroke-linejoin:round;stroke:black;stroke-opacity:1"
         id="path6629" /></marker><marker
       style="overflow:visible;"
       id="Arrow2Lend"
       refX="0.0"
       refY="0.0"
       orient="auto"><path
         transform="scale(1.1) rotate(180) translate(1,0)"
         d="M 8.7185878,4.0337352 L -2.2072895,0.016013256 L 8.7185884,-4.0017078 C 6.9730900,-1.6296469 6.9831476,1.6157441 8.7185878,4.0337352 z "
         style="fill-rule:evenodd;stroke-width:0.625;stroke-linejoin:round;stroke:black;stroke-opacity:1"
         id="path6623" /></marker><marker
       style="overflow:visible;"
       id="Arrow1Lend"
       refX="0.0"
       refY="0.0"
       orient="auto"><path
         transform="scale(0.8) rotate(180) translate(12.5,0)"
         style="fill-rule:evenodd;stroke:black;stroke-width:1pt;stroke-opacity:1"
         d="M 0.0,0.0 L 5.0,-5.0 L -12.5,0.0 L 5.0,5.0 L 0.0,0.0 z "
         id="path6605" /></marker><marker
       style="overflow:visible"
       id="Arrow1Lstart"
       refX="0.0"
       refY="0.0"
       orient="auto"><path
         transform="scale(0.8) translate(12.5,0)"
         style="fill-rule:evenodd;stroke:black;stroke-width:1pt;stroke-opacity:1"
         d="M 0.0,0.0 L 5.0,-5.0 L -12.5,0.0 L 5.0,5.0 L 0.0,0.0 z "
         id="path6602" /></marker><marker
       style="overflow:visible"
       id="TriangleOutM-4"
       refX="0"
       refY="0"
       orient="auto"><path
         transform="scale(0.4,0.4)"
         style="fill-rule:evenodd;stroke:#1a1a1a;stroke-width:1pt;stroke-opacity:1"
         d="m 5.77,0 -8.65,5 0,-10 8.65,5 z"
         id="path6747-7" /></marker><marker
       style="overflow:visible"
       id="DotM"
       refX="0.0"
       refY="0.0"
       orient="auto"><path
         transform="scale(0.4) translate(7.4, 1)"
         style="fill-rule:evenodd;stroke:#000000;stroke-width:1.0pt"
         d="M -2.5,-1.0 C -2.5,1.7600000 -4.7400000,4.0 -7.5,4.0 C -10.260000,4.0 -12.5,1.7600000 -12.5,-1.0 C -12.5,-3.7600000 -10.260000,-6.0 -7.5,-6.0 C -4.7400000,-6.0 -2.5,-3.7600000 -2.5,-1.0 z "
         id="path6409" /></marker><marker
       style="overflow:visible"
       id="DotS"
       refX="0.0"
       refY="0.0"
       orient="auto"><path
         transform="scale(0.2) translate(7.4, 1)"
         style="fill-rule:evenodd;stroke:#000000;stroke-width:1.0pt"
         d="M -2.5,-1.0 C -2.5,1.7600000 -4.7400000,4.0 -7.5,4.0 C -10.260000,4.0 -12.5,1.7600000 -12.5,-1.0 C -12.5,-3.7600000 -10.260000,-6.0 -7.5,-6.0 C -4.7400000,-6.0 -2.5,-3.7600000 -2.5,-1.0 z "
         id="path6412" /></marker><marker
       style="overflow:visible"
       id="DotL"
       refX="0.0"
       refY="0.0"
       orient="auto"><path
         transform="scale(0.8) translate(7.4, 1)"
         style="fill-rule:evenodd;stroke:#000000;stroke-width:1.0pt"
         d="M -2.5,-1.0 C -2.5,1.7600000 -4.7400000,4.0 -7.5,4.0 C -10.260000,4.0 -12.5,1.7600000 -12.5,-1.0 C -12.5,-3.7600000 -10.260000,-6.0 -7.5,-6.0 C -4.7400000,-6.0 -2.5,-3.7600000 -2.5,-1.0 z "
         id="path6406" /></marker><clipPath
       id="clipPath4840"
       clipPathUnits="userSpaceOnUse"><rect
         y="1"
         x="1"
         height="22"
         width="22"
         id="rect4842"
         style="fill:none;stroke:#333;stroke-width:0.01;stroke-linecap:round;stroke-linejoin:miter;stroke-miterlimit:4;stroke-opacity:1;stroke-dasharray:none" /></clipPath><clipPath
       id="clipPath6233"
       clipPathUnits="userSpaceOnUse"><rect
         y="-1.6326209"
         x="2.6516504"
         height="22.185474"
         width="24.130018"
         id="rect6235"
         style="fill:#1a1a1a;fill-opacity:1;stroke:#ff0d0d;stroke-width:0.1;stroke-linecap:round;stroke-linejoin:miter;stroke-miterlimit:4;stroke-opacity:1;stroke-dasharray:none" /></clipPath><clipPath
       id="clipPath6237"
       clipPathUnits="userSpaceOnUse"><rect
         y="-0.58566791"
         x="-26.476313"
         height="22.185474"
         width="24.130018"
         id="rect6239"
         style="fill:#1a1a1a;fill-opacity:1;stroke:#ff0d0d;stroke-width:0.1;stroke-linecap:round;stroke-linejoin:miter;stroke-miterlimit:4;stroke-opacity:1;stroke-dasharray:none" /></clipPath><marker
       style="overflow:visible"
       id="DotS-7"
       refX="0"
       refY="0"
       orient="auto"><path
         transform="matrix(0.2,0,0,0.2,1.48,0.2)"
         style="fill-rule:evenodd;stroke:black;stroke-width:1pt"
         d="m -2.5,-1 c 0,2.76 -2.24,5 -5,5 -2.76,0 -5,-2.24 -5,-5 0,-2.76 2.24,-5 5,-5 2.76,0 5,2.24 5,5 z"
         id="path6412-5" /></marker><marker
       style="overflow:visible"
       id="DotS-9"
       refX="0"
       refY="0"
       orient="auto"><path
         transform="matrix(0.2,0,0,0.2,1.48,0.2)"
         style="fill-rule:evenodd;stroke:black;stroke-width:1pt"
         d="m -2.5,-1 c 0,2.76 -2.24,5 -5,5 -2.76,0 -5,-2.24 -5,-5 0,-2.76 2.24,-5 5,-5 2.76,0 5,2.24 5,5 z"
         id="path6412-9" /></marker><marker
       style="overflow:visible"
       id="DotS-4"
       refX="0"
       refY="0"
       orient="auto"><path
         transform="matrix(0.2,0,0,0.2,1.48,0.2)"
         style="fill-rule:evenodd;stroke:black;stroke-width:1pt"
         d="m -2.5,-1 c 0,2.76 -2.24,5 -5,5 -2.76,0 -5,-2.24 -5,-5 0,-2.76 2.24,-5 5,-5 2.76,0 5,2.24 5,5 z"
         id="path6412-1" /></marker><clipPath
       id="clipPath7276"
       clipPathUnits="userSpaceOnUse"><rect
         y="6.5469537"
         x="-43.096714"
         height="9.374999"
         width="8.906249"
         id="rect7278"
         style="opacity:1;fill:red;fill-opacity:1;stroke:white;stroke-width:0;stroke-linecap:round;stroke-linejoin:round;stroke-miterlimit:4;stroke-dasharray:none;stroke-opacity:1" /></clipPath><marker
       style="overflow:visible"
       id="DotM-6"
       refX="0.0"
       refY="0.0"
       orient="auto"><path
         transform="scale(0.4) translate(7.4, 1)"
         style="fill-rule:evenodd;stroke:#000000;stroke-width:1.0pt"
         d="M -2.5,-1.0 C -2.5,1.7600000 -4.7400000,4.0 -7.5,4.0 C -10.260000,4.0 -12.5,1.7600000 -12.5,-1.0 C -12.5,-3.7600000 -10.260000,-6.0 -7.5,-6.0 C -4.7400000,-6.0 -2.5,-3.7600000 -2.5,-1.0 z "
         id="path6409-0" /></marker><marker
       style="overflow:visible"
       id="DotS-79"
       refX="0.0"
       refY="0.0"
       orient="auto"><path
         transform="scale(0.2) translate(7.4, 1)"
         style="fill-rule:evenodd;stroke:#000000;stroke-width:1.0pt"
         d="M -2.5,-1.0 C -2.5,1.7600000 -4.7400000,4.0 -7.5,4.0 C -10.260000,4.0 -12.5,1.7600000 -12.5,-1.0 C -12.5,-3.7600000 -10.260000,-6.0 -7.5,-6.0 C -4.7400000,-6.0 -2.5,-3.7600000 -2.5,-1.0 z "
         id="path6412-4" /></marker><marker
       style="overflow:visible"
       id="DotL-5"
       refX="0.0"
       refY="0.0"
       orient="auto"><path
         transform="scale(0.8) translate(7.4, 1)"
         style="fill-rule:evenodd;stroke:#000000;stroke-width:1.0pt"
         d="M -2.5,-1.0 C -2.5,1.7600000 -4.7400000,4.0 -7.5,4.0 C -10.260000,4.0 -12.5,1.7600000 -12.5,-1.0 C -12.5,-3.7600000 -10.260000,-6.0 -7.5,-6.0 C -4.7400000,-6.0 -2.5,-3.7600000 -2.5,-1.0 z "
         id="path6406-8" /></marker><clipPath
       id="clipPath4840-4"
       clipPathUnits="userSpaceOnUse"><rect
         y="1"
         x="1"
         height="22"
         width="22"
         id="rect4842-5"
         style="fill:none;stroke:#333;stroke-width:0.01;stroke-linecap:round;stroke-linejoin:miter;stroke-miterlimit:4;stroke-opacity:1;stroke-dasharray:none" /></clipPath><clipPath
       id="clipPath6233-0"
       clipPathUnits="userSpaceOnUse"><rect
         y="-1.6326209"
         x="2.6516504"
         height="22.185474"
         width="24.130018"
         id="rect6235-2"
         style="fill:#1a1a1a;fill-opacity:1;stroke:#ff0d0d;stroke-width:0.1;stroke-linecap:round;stroke-linejoin:miter;stroke-miterlimit:4;stroke-opacity:1;stroke-dasharray:none" /></clipPath><clipPath
       id="clipPath6237-8"
       clipPathUnits="userSpaceOnUse"><rect
         y="-0.58566791"
         x="-26.476313"
         height="22.185474"
         width="24.130018"
         id="rect6239-0"
         style="fill:#1a1a1a;fill-opacity:1;stroke:#ff0d0d;stroke-width:0.1;stroke-linecap:round;stroke-linejoin:miter;stroke-miterlimit:4;stroke-opacity:1;stroke-dasharray:none" /></clipPath><marker
       style="overflow:visible"
       id="DotS-7-1"
       refX="0"
       refY="0"
       orient="auto"><path
         transform="matrix(0.2,0,0,0.2,1.48,0.2)"
         style="fill-rule:evenodd;stroke:black;stroke-width:1pt"
         d="m -2.5,-1 c 0,2.76 -2.24,5 -5,5 -2.76,0 -5,-2.24 -5,-5 0,-2.76 2.24,-5 5,-5 2.76,0 5,2.24 5,5 z"
         id="path6412-5-2" /></marker><marker
       style="overflow:visible"
       id="DotS-9-3"
       refX="0"
       refY="0"
       orient="auto"><path
         transform="matrix(0.2,0,0,0.2,1.48,0.2)"
         style="fill-rule:evenodd;stroke:black;stroke-width:1pt"
         d="m -2.5,-1 c 0,2.76 -2.24,5 -5,5 -2.76,0 -5,-2.24 -5,-5 0,-2.76 2.24,-5 5,-5 2.76,0 5,2.24 5,5 z"
         id="path6412-9-7" /></marker><marker
       style="overflow:visible"
       id="DotS-4-5"
       refX="0"
       refY="0"
       orient="auto"><path
         transform="matrix(0.2,0,0,0.2,1.48,0.2)"
         style="fill-rule:evenodd;stroke:black;stroke-width:1pt"
         d="m -2.5,-1 c 0,2.76 -2.24,5 -5,5 -2.76,0 -5,-2.24 -5,-5 0,-2.76 2.24,-5 5,-5 2.76,0 5,2.24 5,5 z"
         id="path6412-1-2" /></marker><clipPath
       id="clipPath7276-6"
       clipPathUnits="userSpaceOnUse"><rect
         y="6.5469537"
         x="-43.096714"
         height="9.374999"
         width="8.906249"
         id="rect7278-5"
         style="opacity:1;fill:red;fill-opacity:1;stroke:white;stroke-width:0;stroke-linecap:round;stroke-linejoin:round;stroke-miterlimit:4;stroke-dasharray:none;stroke-opacity:1" /></clipPath></defs><g
     transform="matrix(0.47906183,0,0,0.47906183,3.1256291,21.879403)"
     id="g4261"><path
       style="fill:#333"
       id="path4263"
       d="M 6,6 6,42 42,42 42,6 6,6 Z m 34,16 0,0 0,1 0,0 0,8 0,0 0,1 0,0 0,8 0,0 -10,0 -1,0 -10,0 -1,0 -10,0 0,0 0,-26 0,0 10,0 1,0 10,0 1,0 10,0 0,0 0,8 z" /><path
       style="fill:#666"
       id="path4265"
       d="m 30,14 -1,0 0,8 -10,0 0,-8 -1,0 0,8 -10,0 0,-8 0,0 0,26 0,0 0,-8 10,0 0,8 1,0 0,-8 10,0 0,8 1,0 0,-8 10,0 0,-1 -10,0 0,-8 10,0 0,-1 -10,0 0,-8 z m -12,17 -10,0 0,-8 10,0 0,8 z m 11,0 -10,0 0,-8 10,0 0,8 z" /><rect
       style="fill:white"
       id="rect4267"
       height="8"
       width="10"
       y="32"
       x="8" /><rect
       style="fill:white"
       id="rect4269"
       height="8"
       width="10"
       y="23"
       x="8" /><rect
       style="fill:white"
       id="rect4271"
       height="8"
       width="10"
       y="14"
       x="8" /><rect
       style="fill:white"
       id="rect4273"
       height="8"
       width="10"
       y="32"
       x="19" /><rect
       style="fill:white"
       id="rect4275"
       height="8"
       width="10"
       y="23"
       x="19" /><rect
       style="fill:white"
       id="rect4277"
       height="8"
       width="10"
       y="14"
       x="19" /><rect
       style="fill:white"
       id="rect4279"
       height="8"
       width="0"
       y="32"
       x="40" /><rect
       style="fill:white"
       id="rect4281"
       height="8"
       width="10"
       y="32"
       x="30" /><rect
       style="fill:white"
       id="rect4283"
       height="8"
       width="0"
       y="23"
       x="40" /><rect
       style="fill:white"
       id="rect4285"
       height="8"
       width="10"
       y="23"
       x="30" /><rect
       style="fill:white"
       id="rect4287"
       height="8"
       width="0"
       y="14"
       x="40" /><rect
       style="fill:white"
       id="rect4289"
       height="8"
       width="10"
       y="14"
       x="30" /></g><g
     id="g17393"><path
       style="color:black;font-style:normal;font-variant:normal;font-weight:normal;font-stretch:normal;font-size:medium;line-height:normal;font-family:sans-serif;text-indent:0;text-align:start;text-decoration:none;text-decoration-line:none;text-decoration-style:solid;text-decoration-color:black;letter-spacing:normal;word-spacing:normal;text-transform:none;direction:ltr;block-progression:tb;writing-mode:lr-tb;baseline-shift:baseline;text-anchor:start;white-space:normal;clip-rule:nonzero;display:inline;overflow:visible;visibility:visible;opacity:1;isolation:auto;mix-blend-mode:normal;color-interpolation:sRGB;color-interpolation-filters:linearRGB;solid-color:black;solid-opacity:1;fill:#1a1a1a;fill-opacity:1;fill-rule:evenodd;stroke:none;stroke-width:1.79999995;stroke-linecap:butt;stroke-linejoin:miter;stroke-miterlimit:4;stroke-dasharray:none;stroke-dashoffset:0;stroke-opacity:1;color-rendering:auto;image-rendering:auto;shape-rendering:auto;text-rendering:auto;enable-background:accumulate"
       d="m 18.34375,9.5917969 c 0,0 -3.087644,0.019868 -5.947266,1.4824221 -1.42981,0.731277 -2.8340078,1.851473 -3.6992184,3.539062 C 7.832055,16.30087 7.5464327,18.512406 8.1835938,21.273438 L 9.9375,20.869141 c -0.5650039,-2.448351 -0.2911947,-4.162805 0.361328,-5.435547 0.652523,-1.272743 1.723053,-2.146672 2.917969,-2.757813 2.389832,-1.22228 5.152344,-1.283203 5.152344,-1.283203 L 18.34375,9.5917969 Z"
       id="path7238"
       inkscape:connector-curvature="0" /><path
       id="path17399"
       d="m 22.510671,10.435548 -6.178105,3.684969 -0.09862,-7.1993245 6.276726,3.5143555 z"
       style="fill-rule:evenodd;stroke:#1a1a1a;stroke-width:0.71999998pt;stroke-opacity:1"
       inkscape:connector-curvature="0" /></g><g
     id="g17387"><path
       style="color:black;font-style:normal;font-variant:normal;font-weight:normal;font-stretch:normal;font-size:medium;line-height:normal;font-family:sans-serif;text-indent:0;text-align:start;text-decoration:none;text-decoration-line:none;text-decoration-style:solid;text-decoration-color:black;letter-spacing:normal;word-spacing:normal;text-transform:none;direction:ltr;block-progression:tb;writing-mode:lr-tb;baseline-shift:baseline;text-anchor:start;white-space:normal;clip-rule:nonzero;display:inline;overflow:visible;visibility:visible;opacity:1;isolation:auto;mix-blend-mode:normal;color-interpolation:sRGB;color-interpolation-filters:linearRGB;solid-color:black;solid-opacity:1;fill:#1a1a1a;fill-opacity:1;fill-rule:evenodd;stroke:none;stroke-width:1.79999995;stroke-linecap:butt;stroke-linejoin:miter;stroke-miterlimit:4;stroke-dasharray:none;stroke-dashoffset:0;stroke-opacity:1;color-rendering:auto;image-rendering:auto;shape-rendering:auto;text-rendering:auto;enable-background:accumulate"
       d="m 38.998047,29.958984 -1.800781,0.01953 c 0,0 0.0063,0.401515 -0.06641,1.083984 -0.148008,1.390179 -0.645146,3.813577 -2.052734,5.574219 -1.407588,1.760641 -3.627102,3.011323 -7.888672,2.179687 l -0.345703,1.767578 c 4.744551,0.925889 7.87426,-0.614811 9.640625,-2.824218 1.766365,-2.209408 2.268321,-4.935178 2.435547,-6.50586 0.0821,-0.771089 0.07813,-1.294922 0.07813,-1.294922 z"
       id="path7238-7"
       inkscape:connector-curvature="0" /><path
       id="path17391"
       d="m 38.050315,25.814235 3.670914,6.186467 -7.19953,0.08225 3.528616,-6.268721 z"
       style="fill-rule:evenodd;stroke:#1a1a1a;stroke-width:0.71999998pt;stroke-opacity:1"
       inkscape:connector-curvature="0" /></g><g
     transform="matrix(0.86162761,0,0,0.86162761,49.935047,1.5110814)"
     id="g5188"><path
       id="path12751"
       d="m -24.620157,7.4576718 5.214913,10.6066022 5.568465,-7.689786 6.5407377,5.214912"
       style="fill:none;fill-rule:evenodd;stroke:gray;stroke-width:1px;stroke-linecap:butt;stroke-linejoin:miter;stroke-opacity:1" /><rect
       x="-27.411301"
       y="2.7887013"
       width="0.98139888"
       height="20.850952"
       id="rect6184-0"
       style="fill:#1a1a1a" /><rect
       x="-27.411301"
       y="22.658251"
       width="20.850952"
       height="0.98139888"
       id="rect6218-3"
       style="fill:#1a1a1a" /><path
       id="path12749"
       d="m -24.531769,19.920429 c 0,0 2.65165,-14.3189125 8.396893,-5.126524 5.745243,9.192388 8.57367,-8.3968933 8.57367,-8.3968933"
       style="fill:none;fill-rule:evenodd;stroke:black;stroke-width:1px;stroke-linecap:butt;stroke-linejoin:miter;stroke-opacity:1" /></g></svg>