<?xml version="1.0" encoding="UTF-8" standalone="no"?>
<!-- Generator: Adobe Illustrator 16.0.0, SVG Export Plug-In . SVG Version: 6.00 Build 0)  -->

<svg
   xmlns:dc="http://purl.org/dc/elements/1.1/"
   xmlns:cc="http://creativecommons.org/ns#"
   xmlns:rdf="http://www.w3.org/1999/02/22-rdf-syntax-ns#"
   xmlns:svg="http://www.w3.org/2000/svg"
   xmlns="http://www.w3.org/2000/svg"
   xmlns:sodipodi="http://sodipodi.sourceforge.net/DTD/sodipodi-0.dtd"
   xmlns:inkscape="http://www.inkscape.org/namespaces/inkscape"
   version="1.1"
   id="Layer_1"
   x="0px"
   y="0px"
   width="24px"
   height="24px"
   viewBox="0 0 24 24"
   enable-background="new 0 0 24 24"
   xml:space="preserve"
   inkscape:version="0.91 r13725"
   sodipodi:docname="TimeSlice.svg"><metadata
     id="metadata4212"><rdf:RDF><cc:Work
         rdf:about=""><dc:format>image/svg+xml</dc:format><dc:type
           rdf:resource="http://purl.org/dc/dcmitype/StillImage" /><dc:title /></cc:Work></rdf:RDF></metadata><defs
     id="defs4210"><marker
       inkscape:stockid="DotM"
       orient="auto"
       refY="0.0"
       refX="0.0"
       id="DotM"
       style="overflow:visible"><path
         id="path6409"
         d="M -2.5,-1.0 C -2.5,1.7600000 -4.7400000,4.0 -7.5,4.0 C -10.260000,4.0 -12.5,1.7600000 -12.5,-1.0 C -12.5,-3.7600000 -10.260000,-6.0 -7.5,-6.0 C -4.7400000,-6.0 -2.5,-3.7600000 -2.5,-1.0 z "
         style="fill-rule:evenodd;stroke:#000000;stroke-width:1.0pt"
         transform="scale(0.4) translate(7.4, 1)" /></marker><marker
       inkscape:stockid="DotS"
       orient="auto"
       refY="0.0"
       refX="0.0"
       id="DotS"
       style="overflow:visible"><path
         id="path6412"
         d="M -2.5,-1.0 C -2.5,1.7600000 -4.7400000,4.0 -7.5,4.0 C -10.260000,4.0 -12.5,1.7600000 -12.5,-1.0 C -12.5,-3.7600000 -10.260000,-6.0 -7.5,-6.0 C -4.7400000,-6.0 -2.5,-3.7600000 -2.5,-1.0 z "
         style="fill-rule:evenodd;stroke:#000000;stroke-width:1.0pt"
         transform="scale(0.2) translate(7.4, 1)" /></marker><marker
       inkscape:stockid="DotL"
       orient="auto"
       refY="0.0"
       refX="0.0"
       id="DotL"
       style="overflow:visible"><path
         id="path6406"
         d="M -2.5,-1.0 C -2.5,1.7600000 -4.7400000,4.0 -7.5,4.0 C -10.260000,4.0 -12.5,1.7600000 -12.5,-1.0 C -12.5,-3.7600000 -10.260000,-6.0 -7.5,-6.0 C -4.7400000,-6.0 -2.5,-3.7600000 -2.5,-1.0 z "
         style="fill-rule:evenodd;stroke:#000000;stroke-width:1.0pt"
         transform="scale(0.8) translate(7.4, 1)" /></marker><clipPath
       clipPathUnits="userSpaceOnUse"
       id="clipPath4840"><rect
         style="fill:none;stroke:#333;stroke-width:0.01;stroke-linecap:round;stroke-linejoin:miter;stroke-miterlimit:4;stroke-opacity:1;stroke-dasharray:none"
         id="rect4842"
         width="22"
         height="22"
         x="1"
         y="1" /></clipPath><clipPath
       clipPathUnits="userSpaceOnUse"
       id="clipPath6233"><rect
         style="fill:#1a1a1a;fill-opacity:1;stroke:#ff0d0d;stroke-width:0.1;stroke-linecap:round;stroke-linejoin:miter;stroke-miterlimit:4;stroke-opacity:1;stroke-dasharray:none"
         id="rect6235"
         width="24.130018"
         height="22.185474"
         x="2.6516504"
         y="-1.6326209" /></clipPath><clipPath
       clipPathUnits="userSpaceOnUse"
       id="clipPath6237"><rect
         style="fill:#1a1a1a;fill-opacity:1;stroke:#ff0d0d;stroke-width:0.1;stroke-linecap:round;stroke-linejoin:miter;stroke-miterlimit:4;stroke-opacity:1;stroke-dasharray:none"
         id="rect6239"
         width="24.130018"
         height="22.185474"
         x="-26.476313"
         y="-0.58566791" /></clipPath><marker
       inkscape:stockid="DotS"
       orient="auto"
       refY="0"
       refX="0"
       id="DotS-7"
       style="overflow:visible"><path
         inkscape:connector-curvature="0"
         id="path6412-5"
         d="m -2.5,-1 c 0,2.76 -2.24,5 -5,5 -2.76,0 -5,-2.24 -5,-5 0,-2.76 2.24,-5 5,-5 2.76,0 5,2.24 5,5 z"
         style="fill-rule:evenodd;stroke:black;stroke-width:1pt"
         transform="matrix(0.2,0,0,0.2,1.48,0.2)" /></marker><marker
       inkscape:stockid="DotS"
       orient="auto"
       refY="0"
       refX="0"
       id="DotS-9"
       style="overflow:visible"><path
         inkscape:connector-curvature="0"
         id="path6412-9"
         d="m -2.5,-1 c 0,2.76 -2.24,5 -5,5 -2.76,0 -5,-2.24 -5,-5 0,-2.76 2.24,-5 5,-5 2.76,0 5,2.24 5,5 z"
         style="fill-rule:evenodd;stroke:black;stroke-width:1pt"
         transform="matrix(0.2,0,0,0.2,1.48,0.2)" /></marker><marker
       inkscape:stockid="DotS"
       orient="auto"
       refY="0"
       refX="0"
       id="DotS-4"
       style="overflow:visible"><path
         inkscape:connector-curvature="0"
         id="path6412-1"
         d="m -2.5,-1 c 0,2.76 -2.24,5 -5,5 -2.76,0 -5,-2.24 -5,-5 0,-2.76 2.24,-5 5,-5 2.76,0 5,2.24 5,5 z"
         style="fill-rule:evenodd;stroke:black;stroke-width:1pt"
         transform="matrix(0.2,0,0,0.2,1.48,0.2)" /></marker></defs><sodipodi:namedview
     pagecolor="#ffffff"
     bordercolor="#666666"
     borderopacity="1"
     objecttolerance="10"
     gridtolerance="10"
     guidetolerance="10"
     inkscape:pageopacity="0"
     inkscape:pageshadow="2"
     inkscape:window-width="1918"
     inkscape:window-height="1042"
     id="namedview4208"
     showgrid="true"
     inkscape:zoom="32"
     inkscape:cx="5.6163294"
     inkscape:cy="13.346439"
     inkscape:window-x="0"
     inkscape:window-y="37"
     inkscape:window-maximized="0"
     inkscape:current-layer="g5188"
     inkscape:snap-global="false"><inkscape:grid
       type="xygrid"
       id="grid4788" /></sodipodi:namedview><g
     id="g5188"
     transform="translate(29.127963,-1.046953)"><path
       d="m -16.909213,20.970267 c -3.289626,0 -5.966031,-2.676558 -5.966031,-5.96603 0,-3.289473 2.676405,-5.9660311 5.966031,-5.9660311 3.289626,0 5.966184,2.6765581 5.966184,5.9660311 0,3.289472 -2.676558,5.96603 -5.966184,5.96603 z m 5.432835,-11.6268301 0.859276,-1.2135647 c 0.156065,-0.2202998 0.103942,-0.5252246 -0.116205,-0.6811354 L -12.029198,6.530897 c -0.220299,-0.1557578 -0.525377,-0.1036342 -0.681441,0.1166656 l -0.880739,1.2437661 c -0.650015,-0.3046172 -1.348014,-0.5227708 -2.079434,-0.6389765 l 0,-0.5059077 c 0,-0.3237809 0.264912,-0.5886921 0.588692,-0.5886921 l 0.325008,0 c 0.323933,0 0.588845,-0.2650649 0.588845,-0.5885397 l 0,-1.7907598 c 0,-0.3237808 -0.264912,-0.5889989 -0.588845,-0.5889989 l -4.304355,0 c -0.323627,0 -0.588539,0.2652181 -0.588539,0.5889989 l 0,1.7907598 c 0,0.3234748 0.264912,0.5885397 0.588539,0.5885397 l 0.325161,0 c 0.323781,0 0.588846,0.2649112 0.588846,0.5886921 l 0,0.5059077 c -0.78431,0.1246372 -1.529681,0.366093 -2.218789,0.7055115 l -0.872613,-1.2321153 c -0.155759,-0.2202998 -0.460683,-0.2721173 -0.680983,-0.1162056 l -1.29589,0.9176859 c -0.220453,0.1559116 -0.272424,0.4608357 -0.116359,0.6812893 l 0.87982,1.2425392 c -1.42436,1.4216008 -2.306939,3.3863618 -2.306939,5.5531798 0,4.328423 3.521577,7.85 7.85,7.85 4.328576,0 7.85,-3.521577 7.85,-7.85 0,-2.222161 -0.928264,-4.231381 -2.417165,-5.6608001"
       style="fill:#4d4d4d;fill-opacity:1;fill-rule:nonzero;stroke:none"
       id="path154"
       inkscape:connector-curvature="0" /><path
       style="opacity:1;fill:#4d4d4d;fill-opacity:1;fill-rule:nonzero;stroke:#4d4d4d;stroke-width:0.1;stroke-linecap:butt;stroke-linejoin:miter;stroke-miterlimit:95.90000153;stroke-dasharray:none;stroke-dashoffset:0;stroke-opacity:1"
       id="path4212"
       inkscape:transform-center-x="-2.4540071"
       inkscape:transform-center-y="-0.350361"
       transform="matrix(0.00439373,-0.99999035,0.99999035,0.00439373,0,0)"
       d="m -10.280594,-16.822094 a 4.7353354,4.8290844 0 0 1 -2.428254,4.217179 4.7353354,4.8290844 0 0 1 -4.794372,-0.107915 l 2.487291,-4.109264 z"
       sodipodi:type="arc"
       sodipodi:start="0"
       sodipodi:end="2.1238191"
       sodipodi:ry="4.8290844"
       sodipodi:rx="4.7353354"
       sodipodi:cy="-16.822094"
       sodipodi:cx="-15.015929" /></g></svg>