<?xml version="1.0" encoding="UTF-8" standalone="no"?>
<!-- Generator: Adobe Illustrator 16.0.0, SVG Export Plug-In . SVG Version: 6.00 Build 0)  -->

<svg
   xmlns:dc="http://purl.org/dc/elements/1.1/"
   xmlns:cc="http://creativecommons.org/ns#"
   xmlns:rdf="http://www.w3.org/1999/02/22-rdf-syntax-ns#"
   xmlns:svg="http://www.w3.org/2000/svg"
   xmlns="http://www.w3.org/2000/svg"
   xmlns:sodipodi="http://sodipodi.sourceforge.net/DTD/sodipodi-0.dtd"
   xmlns:inkscape="http://www.inkscape.org/namespaces/inkscape"
   version="1.1"
   id="Layer_1"
   x="0px"
   y="0px"
   width="24px"
   height="24px"
   viewBox="0 0 24 24"
   enable-background="new 0 0 24 24"
   xml:space="preserve"
   inkscape:version="0.91 r13725"
   sodipodi:docname="VAR.svg"><metadata
     id="metadata4212"><rdf:RDF><cc:Work
         rdf:about=""><dc:format>image/svg+xml</dc:format><dc:type
           rdf:resource="http://purl.org/dc/dcmitype/StillImage" /><dc:title></dc:title></cc:Work></rdf:RDF></metadata><defs
     id="defs4210"><inkscape:path-effect
       effect="powerstroke"
       id="path-effect10125"
       is_visible="true"
       offset_points="0,0.5"
       sort_points="true"
       interpolator_type="CubicBezierJohan"
       interpolator_beta="0.2"
       start_linecap_type="zerowidth"
       linejoin_type="round"
       miter_limit="4"
       end_linecap_type="zerowidth"
       cusp_linecap_type="round" /><marker
       inkscape:stockid="DotM"
       orient="auto"
       refY="0.0"
       refX="0.0"
       id="DotM"
       style="overflow:visible"><path
         id="path6409"
         d="M -2.5,-1.0 C -2.5,1.7600000 -4.7400000,4.0 -7.5,4.0 C -10.260000,4.0 -12.5,1.7600000 -12.5,-1.0 C -12.5,-3.7600000 -10.260000,-6.0 -7.5,-6.0 C -4.7400000,-6.0 -2.5,-3.7600000 -2.5,-1.0 z "
         style="fill-rule:evenodd;stroke:#000000;stroke-width:1.0pt"
         transform="scale(0.4) translate(7.4, 1)" /></marker><marker
       inkscape:stockid="DotS"
       orient="auto"
       refY="0.0"
       refX="0.0"
       id="DotS"
       style="overflow:visible"><path
         id="path6412"
         d="M -2.5,-1.0 C -2.5,1.7600000 -4.7400000,4.0 -7.5,4.0 C -10.260000,4.0 -12.5,1.7600000 -12.5,-1.0 C -12.5,-3.7600000 -10.260000,-6.0 -7.5,-6.0 C -4.7400000,-6.0 -2.5,-3.7600000 -2.5,-1.0 z "
         style="fill-rule:evenodd;stroke:#000000;stroke-width:1.0pt"
         transform="scale(0.2) translate(7.4, 1)" /></marker><marker
       inkscape:stockid="DotL"
       orient="auto"
       refY="0.0"
       refX="0.0"
       id="DotL"
       style="overflow:visible"><path
         id="path6406"
         d="M -2.5,-1.0 C -2.5,1.7600000 -4.7400000,4.0 -7.5,4.0 C -10.260000,4.0 -12.5,1.7600000 -12.5,-1.0 C -12.5,-3.7600000 -10.260000,-6.0 -7.5,-6.0 C -4.7400000,-6.0 -2.5,-3.7600000 -2.5,-1.0 z "
         style="fill-rule:evenodd;stroke:#000000;stroke-width:1.0pt"
         transform="scale(0.8) translate(7.4, 1)" /></marker><clipPath
       clipPathUnits="userSpaceOnUse"
       id="clipPath4840"><rect
         style="fill:none;stroke:#333;stroke-width:0.01;stroke-linecap:round;stroke-linejoin:miter;stroke-miterlimit:4;stroke-opacity:1;stroke-dasharray:none"
         id="rect4842"
         width="22"
         height="22"
         x="1"
         y="1" /></clipPath><clipPath
       clipPathUnits="userSpaceOnUse"
       id="clipPath6233"><rect
         style="fill:#1a1a1a;fill-opacity:1;stroke:#ff0d0d;stroke-width:0.1;stroke-linecap:round;stroke-linejoin:miter;stroke-miterlimit:4;stroke-opacity:1;stroke-dasharray:none"
         id="rect6235"
         width="24.130018"
         height="22.185474"
         x="2.6516504"
         y="-1.6326209" /></clipPath><clipPath
       clipPathUnits="userSpaceOnUse"
       id="clipPath6237"><rect
         style="fill:#1a1a1a;fill-opacity:1;stroke:#ff0d0d;stroke-width:0.1;stroke-linecap:round;stroke-linejoin:miter;stroke-miterlimit:4;stroke-opacity:1;stroke-dasharray:none"
         id="rect6239"
         width="24.130018"
         height="22.185474"
         x="-26.476313"
         y="-0.58566791" /></clipPath><marker
       inkscape:stockid="DotS"
       orient="auto"
       refY="0"
       refX="0"
       id="DotS-7"
       style="overflow:visible"><path
         inkscape:connector-curvature="0"
         id="path6412-5"
         d="m -2.5,-1 c 0,2.76 -2.24,5 -5,5 -2.76,0 -5,-2.24 -5,-5 0,-2.76 2.24,-5 5,-5 2.76,0 5,2.24 5,5 z"
         style="fill-rule:evenodd;stroke:black;stroke-width:1pt"
         transform="matrix(0.2,0,0,0.2,1.48,0.2)" /></marker><marker
       inkscape:stockid="DotS"
       orient="auto"
       refY="0"
       refX="0"
       id="DotS-9"
       style="overflow:visible"><path
         inkscape:connector-curvature="0"
         id="path6412-9"
         d="m -2.5,-1 c 0,2.76 -2.24,5 -5,5 -2.76,0 -5,-2.24 -5,-5 0,-2.76 2.24,-5 5,-5 2.76,0 5,2.24 5,5 z"
         style="fill-rule:evenodd;stroke:black;stroke-width:1pt"
         transform="matrix(0.2,0,0,0.2,1.48,0.2)" /></marker><marker
       inkscape:stockid="DotS"
       orient="auto"
       refY="0"
       refX="0"
       id="DotS-4"
       style="overflow:visible"><path
         inkscape:connector-curvature="0"
         id="path6412-1"
         d="m -2.5,-1 c 0,2.76 -2.24,5 -5,5 -2.76,0 -5,-2.24 -5,-5 0,-2.76 2.24,-5 5,-5 2.76,0 5,2.24 5,5 z"
         style="fill-rule:evenodd;stroke:black;stroke-width:1pt"
         transform="matrix(0.2,0,0,0.2,1.48,0.2)" /></marker><clipPath
       clipPathUnits="userSpaceOnUse"
       id="clipPath7276"><rect
         style="opacity:1;fill:red;fill-opacity:1;stroke:white;stroke-width:0;stroke-linecap:round;stroke-linejoin:round;stroke-miterlimit:4;stroke-dasharray:none;stroke-opacity:1"
         id="rect7278"
         width="8.906249"
         height="9.374999"
         x="-43.096714"
         y="6.5469537" /></clipPath></defs><sodipodi:namedview
     pagecolor="#ffffff"
     bordercolor="#666666"
     borderopacity="1"
     objecttolerance="10"
     gridtolerance="10"
     guidetolerance="10"
     inkscape:pageopacity="0"
     inkscape:pageshadow="2"
     inkscape:window-width="1918"
     inkscape:window-height="1042"
     id="namedview4208"
     showgrid="true"
     inkscape:zoom="32"
     inkscape:cx="20.084079"
     inkscape:cy="14.615938"
     inkscape:window-x="0"
     inkscape:window-y="37"
     inkscape:window-maximized="0"
     inkscape:current-layer="g5188"
     inkscape:snap-global="false"><inkscape:grid
       type="xygrid"
       id="grid4788" /></sodipodi:namedview><g
     id="g5188"
     transform="translate(29.127963,-1.046953)"><g
       id="g10589"
       transform="matrix(0.63030059,0,0,0.63298675,-9.245716,24.34186)"><path
         style="fill:#d3d3d3"
         d="m -26.792785,-3.5714002 -0.04408,-0.071584 0.04408,-14.2302088 0.04408,-14.230208 0.819028,0 0.819027,0 0,13.41875 0,13.4187501 13.41875,0 13.41875,0 0,0.83125 0,0.83125 -12.574735,0 -12.574736,0 -1.663047,0.051792 -1.663047,0.051792 -0.04408,-0.071584 z m 2.289085,-2.8556122 c -0.02903,-0.029027 -0.05278,-0.150746 -0.05278,-0.2704856 l 0,-0.2177083 0.07008,-0.026389 c 0.03854,-0.014514 1.075511,-1.0060761 2.304375,-2.203472 l 2.234299,-2.1770837 0.446667,-0.04242 0.446667,-0.04242 1.120671,0.506661 1.12067,0.506661 1.874444,-1.513197 1.874444,-1.513197 0.431386,0 0.431387,0 0.294333,0.124148 c 0.702266,0.296211 2.1421228,0.825852 2.245121,0.825852 l 0.1125006,0 0.4725213,-0.481192 c 0.2598876,-0.264656 1.0367414,-1.019883 1.7263424,-1.678283 l 1.2538203,-1.19709 1.3740206,0.339872 1.3740206,0.339872 0.1034091,-0.0622 c 0.087563,-0.05267 2.3190751,-1.700575 4.2992424,-3.174862 l 0.5541667,-0.412592 0.049674,0.80803 c 0.027321,0.444416 0.050268,2.820842 0.050993,5.280946 L 1.710095,-8.2346446 1.659102,-7.5464884 1.60811,-6.858325 0.02477662,-8.0483742 C -0.84605671,-8.7029013 -1.9174833,-9.5010018 -2.3561704,-9.8219308 l -0.7976144,-0.5835082 -1.4586356,0.392306 -1.4586363,0.3923053 -0.099532,-0.036939 c -0.054742,-0.020317 -0.8441613,-0.5010823 -1.7542637,-1.0683703 l -1.6547353,-1.031431 -0.2644863,-0.0031 -0.264487,-0.0031 -1.1875,-0.462972 -1.1875,-0.46297 -0.197916,0.142784 c -0.108855,0.07853 -0.963855,0.771195 -1.9,1.539253 l -1.702084,1.3964694 -0.475,-0.031672 -0.475,-0.031671 -0.83125,-0.3916414 c -0.457187,-0.215402 -0.92006,-0.429312 -1.028604,-0.475354 l -0.197355,-0.08371 -2.177645,2.1246457 -2.177646,2.1246473 -0.40243,8.155e-4 c -0.221337,4.75e-4 -0.426181,-0.022931 -0.455209,-0.051959 z m 0,-12.3499996 c -0.02903,-0.02903 -0.05278,-0.150746 -0.05278,-0.270486 l 0,-0.217708 0.07008,-0.02639 c 0.03854,-0.01451 1.075511,-1.006076 2.304375,-2.203472 l 2.234299,-2.177083 0.446667,-0.04242 0.446667,-0.04242 1.120671,0.506661 1.12067,0.506661 1.874444,-1.513197 1.874444,-1.513197 0.431386,0 0.431387,0 0.294333,0.124148 c 0.702266,0.296211 2.1421228,0.825852 2.245121,0.825852 l 0.1125006,0 0.4725213,-0.481192 c 0.2598876,-0.264656 1.0367414,-1.019883 1.7263424,-1.678283 l 1.2538203,-1.19709 1.3740206,0.339872 1.3740206,0.339872 0.1034091,-0.0622 c 0.087563,-0.05267 2.3190751,-1.700576 4.2992424,-3.174862 l 0.5541667,-0.412592 0.049674,0.80803 c 0.027321,0.444416 0.050268,2.820842 0.050993,5.280946 l 0.00132,4.472917 -0.050993,0.688163 -0.050992,0.688163 -1.58333338,-1.190049 c -0.87083333,-0.654527 -1.94225992,-1.452628 -2.38094702,-1.773557 l -0.7976144,-0.583508 -1.4586356,0.392306 -1.4586363,0.392305 -0.099532,-0.03694 c -0.054742,-0.02032 -0.8441613,-0.501082 -1.7542637,-1.06837 l -1.6547353,-1.031431 -0.2644863,-0.0031 -0.264487,-0.0031 -1.1875,-0.462972 -1.1875,-0.46297 -0.197916,0.142784 c -0.108855,0.07853 -0.963855,0.771195 -1.9,1.539253 l -1.702084,1.396469 -0.475,-0.03167 -0.475,-0.03167 -0.83125,-0.391642 c -0.457187,-0.215402 -0.92006,-0.429312 -1.028604,-0.475354 l -0.197355,-0.08371 -2.177645,2.124646 -2.177646,2.124647 -0.40243,8.24e-4 c -0.221337,4.75e-4 -0.426181,-0.02293 -0.455209,-0.05196 z"
         id="path10599"
         inkscape:connector-curvature="0" /><path
         style="fill:#a5a5a5"
         d="m -26.714319,-3.5709648 -0.05882,-0.058825 0,-14.2368062 0,-14.236805 0.83125,0 0.83125,0 0,13.41875 0,13.4187498 13.41875,0 13.41875,0 0,0.83125 0,0.83125 -13.963021,0 -13.963021,0 -0.228154,0.045631 -0.228154,0.045631 -0.05882,-0.058826 z m 2.330396,-2.8869637 -0.183695,-0.073658 0.02536,-0.1463491 0.02536,-0.1463483 2.308749,-2.268725 2.308747,-2.2687251 0.446296,0 0.446296,0 1.03406,0.475 c 0.568733,0.26125 1.076484,0.475 1.128336,0.475 0.05185,0 0.909379,-0.659063 1.905616,-1.464584 l 1.81134,-1.464583 0.401114,-0.0094 c 0.560774,-0.01311 0.545572,-0.01665 1.469863,0.341601 0.457187,0.177201 1.050782,0.405024 1.3191,0.506273 l 0.4878503,0.184087 1.4121497,-1.035051 c 0.776682,-0.569277 1.5825385,-1.159501 1.7907912,-1.311608 l 0.3786415,-0.276557 1.1847727,0.295001 1.1847727,0.295001 0.1386691,-0.03935 c 0.076268,-0.02164 1.2252316,-0.681224 2.55325247,-1.465737 l 2.41458333,-1.426387 0.062771,0.03824 0.06277,0.03824 -0.019828,3.813021 c -0.010905,2.097162 -0.032863,4.1247407 -0.048794,4.5057303 l -0.028968,0.6927083 -0.06059,0 c -0.033325,0 -0.94805172,-0.5200379 -2.03272531,-1.1556401 C -1.5419333,-9.9863093 -2.620017,-10.615174 -2.8529998,-10.748186 l -0.4236066,-0.241838 -1.203859,0.328729 c -0.6621223,0.1808 -1.2730625,0.328138 -1.3576442,0.327416 l -0.1537844,-0.0013 -1.5833333,-0.715994 -1.5833334,-0.715992 -0.5145833,-0.03946 -0.514583,-0.03946 -1.16457,-0.440741 -1.164568,-0.440741 -0.379182,0.311841 c -0.208549,0.171513 -1.062709,0.8707 -1.898133,1.55375 l -1.518953,1.2419053 -0.349091,0 -0.34909,0 -1.127538,-0.5204823 -1.127538,-0.520483 -0.171085,0.141376 c -0.0941,0.07776 -1.081099,1.0422857 -2.193338,2.143399 l -2.022252,2.0020237 -0.273581,-0.00502 c -0.15047,-0.00276 -0.356244,-0.038164 -0.457277,-0.078676 z m 0,-12.3500005 -0.183695,-0.07366 0.02536,-0.146349 0.02536,-0.146348 2.308749,-2.268725 2.308747,-2.268725 0.446296,0 0.446296,0 1.03406,0.475 c 0.568733,0.26125 1.076484,0.475 1.128336,0.475 0.05185,0 0.909379,-0.659063 1.905616,-1.464584 l 1.81134,-1.464583 0.401114,-0.0094 c 0.560774,-0.01311 0.545572,-0.01665 1.469863,0.341601 0.457187,0.177201 1.050782,0.405024 1.3191,0.506273 l 0.4878503,0.184087 1.4121497,-1.035051 c 0.776682,-0.569277 1.5825385,-1.159501 1.7907912,-1.311608 l 0.3786415,-0.276557 1.1847727,0.295001 1.1847727,0.295001 0.1386691,-0.03935 c 0.076268,-0.02164 1.2252316,-0.681224 2.55325247,-1.465737 l 2.41458333,-1.426387 0.062771,0.03824 0.06277,0.03824 -0.019828,3.813021 c -0.010905,2.097162 -0.032863,4.12474 -0.048794,4.50573 l -0.028968,0.692708 -0.06059,0 c -0.033325,0 -0.94805172,-0.520038 -2.03272531,-1.15564 -1.08467359,-0.635601 -2.16275729,-1.264466 -2.39574009,-1.397478 l -0.4236066,-0.241838 -1.203859,0.328729 c -0.6621223,0.1808 -1.2730625,0.328138 -1.3576442,0.327416 l -0.1537844,-0.0013 -1.5833333,-0.715994 -1.5833334,-0.715992 -0.5145833,-0.03946 -0.5145834,-0.03946 -1.16457,-0.440741 -1.164568,-0.440741 -0.379182,0.311841 c -0.208549,0.171513 -1.062709,0.8707 -1.898133,1.55375 l -1.518953,1.241905 -0.349091,0 -0.34909,0 -1.127538,-0.520482 -1.127538,-0.520483 -0.171085,0.141375 c -0.0941,0.07776 -1.081099,1.042287 -2.193338,2.1434 l -2.022252,2.002024 -0.273581,-0.005 c -0.15047,-0.0028 -0.356244,-0.03816 -0.457277,-0.07868 z"
         id="path10597"
         inkscape:connector-curvature="0" /><path
         style="fill:#5f5f5f"
         d="m -26.753568,-17.833609 0.02001,-14.230209 0.771875,-0.02266 0.771875,-0.02266 0,13.461201 0,13.4611997 13.458334,0 13.458333,0 0,0.7916666 0,0.7916667 -14.250215,0 -14.250216,0 0.02001,-14.230208 z m 2.2853,11.1624997 0.009,-0.2177084 2.29055,-2.2088576 2.290549,-2.2088567 0.377727,-0.03629 0.377726,-0.0363 1.155827,0.531816 1.155826,0.531815 1.862778,-1.512704 1.862777,-1.512706 0.451344,0 0.451342,0 1.348637,0.522564 1.3486372,0.522563 0.2556593,-0.04149 0.2556592,-0.04149 0.1255212,0.138699 c 0.069036,0.07629 0.1255211,0.175973 0.1255211,0.221528 l 0,0.08283 -0.2473958,0.04948 c -0.1360677,0.02721 -0.4489043,0.04948 -0.6951926,0.04948 l -0.4477976,0 -1.135806,-0.435417 c -0.624693,-0.239479 -1.181748,-0.435417 -1.237902,-0.435417 l -0.102096,0 -1.57003,1.281918 c -0.863517,0.705056 -1.724165,1.399743 -1.912552,1.5437505 l -0.342522,0.2618318 -0.256533,0 -0.256534,0 -1.125292,-0.5145833 c -0.618911,-0.283021 -1.168711,-0.512873 -1.221778,-0.510783 l -0.09649,0.0038 -2.1375,2.0920493 -2.1375,2.0920488 -0.415625,0.00207 -0.415625,0.00207 0.009,-0.2177083 z m 16.356179,-5.6215027 c -0.1920852,-0.212252 -0.1765804,-0.239607 0.1920679,-0.338874 l 0.3281229,-0.08835 0.1635899,0.16359 0.16359,0.16359 -0.076088,0.07388 c -0.041848,0.04064 -0.201894,0.09698 -0.3556579,0.125195 l -0.2795691,0.05131 -0.1360559,-0.150339 z m 4.5743617,-0.07666 c -0.130625,-0.0186 -0.2675192,-0.06287 -0.304209,-0.09839 l -0.066709,-0.06458 0.094164,-0.175947 0.094164,-0.175948 0.2792287,0.04531 c 0.3323053,0.05393 0.3122618,0.03762 0.3805083,0.309538 l 0.054601,0.217546 -0.1471241,-0.01186 c -0.080919,-0.0065 -0.2539991,-0.02708 -0.3846241,-0.04567 z m -3.1633243,-0.255437 -0.1500177,-0.165768 0.073338,-0.06769 c 0.040335,-0.03723 0.2009622,-0.09032 0.3569482,-0.117978 l 0.2836106,-0.05028 0.1459771,0.161303 0.145977,0.161303 -0.073338,0.07113 c -0.040335,0.03913 -0.1991437,0.09422 -0.3529076,0.122444 l -0.2795691,0.05131 -0.1500185,-0.165769 z m 4.3489306,-0.0097 c -0.068286,-0.21515 -0.031877,-0.242715 0.3822325,-0.289391 l 0.3485756,-0.03929 0.047349,0.181062 c 0.026042,0.09958 0.029152,0.210505 0.00691,0.24649 l -0.040435,0.06543 -0.3462434,0 -0.3462425,0 -0.052147,-0.164299 z m -2.9074813,-0.04861 c -0.1658178,-0.04333 -0.1696431,-0.09563 -0.021321,-0.291482 l 0.1121847,-0.148138 0.360297,0.05403 c 0.3933974,0.05899 0.3979028,0.06364 0.2783461,0.287033 l -0.081953,0.153129 -0.2545058,-0.0092 c -0.1399785,-0.0051 -0.3168503,-0.02548 -0.3930482,-0.04539 z m 4.41040505,-0.113645 -0.05339,-0.168217 0.10742996,-0.06807 c 0.059086,-0.03744 0.23686904,-0.06862 0.39507175,-0.06928 l 0.28764179,-0.0012 0.04583988,0.175292 0.04583987,0.175293 -0.09598167,0.061 c -0.0527899,0.03355 -0.22717508,0.06154 -0.38752162,0.06221 l -0.29153996,0.0012 -0.05339,-0.168217 z m 1.51049842,-0.138381 -0.0529989,-0.166985 0.049366,-0.07987 0.0493652,-0.07988 0.34624333,0 0.3462425,0 0.052147,0.164299 c 0.068362,0.21539 0.032031,0.242698 -0.3855108,0.289761 l -0.35185542,0.03966 -0.0529989,-0.166984 z m -25.12956917,-6.08611 0.009,-0.217709 2.29055,-2.208857 2.290549,-2.208857 0.377727,-0.0363 0.377726,-0.03629 1.155827,0.531816 1.155826,0.531815 1.862778,-1.512704 1.862777,-1.512706 0.451344,0 0.451342,0 1.348637,0.522564 1.3486372,0.522563 0.2556593,-0.04149 0.2556592,-0.04149 0.1255212,0.138699 c 0.069036,0.07629 0.1255211,0.175973 0.1255211,0.221528 l 0,0.08283 -0.2473958,0.04948 c -0.1360677,0.02721 -0.4489043,0.04948 -0.6951926,0.04948 l -0.4477976,0 -1.135806,-0.435417 c -0.624693,-0.239479 -1.181748,-0.435417 -1.237902,-0.435417 l -0.102096,0 -1.57003,1.281918 c -0.863517,0.705056 -1.724165,1.399743 -1.912552,1.54375 l -0.342522,0.261832 -0.256533,0 -0.256534,0 -1.125292,-0.514583 c -0.618911,-0.283021 -1.168711,-0.512873 -1.221778,-0.510783 l -0.09649,0.0038 -2.1375,2.092049 -2.1375,2.092049 -0.415625,0.0021 -0.415625,0.0021 0.009,-0.217708 z m 16.356179,-5.621503 c -0.1920852,-0.212252 -0.1765804,-0.239607 0.1920679,-0.338874 l 0.3281229,-0.08835 0.1635899,0.16359 0.16359,0.16359 -0.076088,0.07389 c -0.041848,0.04064 -0.201894,0.09698 -0.3556579,0.125195 l -0.2795691,0.05131 -0.1360559,-0.150339 z m 4.5743617,-0.07666 c -0.130625,-0.0186 -0.2675192,-0.06287 -0.304209,-0.09839 l -0.066709,-0.06458 0.094164,-0.175947 0.094164,-0.175948 0.2792287,0.04531 c 0.3323053,0.05393 0.3122618,0.03762 0.3805083,0.309538 l 0.054601,0.217546 -0.1471241,-0.01186 c -0.080919,-0.0065 -0.2539991,-0.02708 -0.3846241,-0.04567 z m -3.1633243,-0.255437 -0.1500177,-0.165768 0.073338,-0.06769 c 0.040335,-0.03723 0.2009622,-0.09032 0.3569482,-0.117978 l 0.2836106,-0.05028 0.1459771,0.161303 0.145977,0.161303 -0.073338,0.07114 c -0.040335,0.03912 -0.1991437,0.09422 -0.3529076,0.122444 l -0.2795691,0.05131 -0.1500185,-0.165769 z m 4.3489306,-0.0097 c -0.068286,-0.21515 -0.031877,-0.242715 0.3822325,-0.289391 l 0.3485756,-0.03929 0.047349,0.181062 c 0.026042,0.09959 0.029152,0.210505 0.00691,0.24649 l -0.040435,0.06543 -0.3462434,0 -0.3462425,0 -0.052147,-0.164299 z m -2.9074813,-0.04861 c -0.1658178,-0.04333 -0.1696431,-0.09563 -0.021321,-0.291482 l 0.1121847,-0.148138 0.360297,0.05403 c 0.3933974,0.05899 0.3979028,0.06364 0.2783461,0.287033 l -0.081953,0.153129 -0.2545058,-0.0092 c -0.1399785,-0.0051 -0.3168503,-0.02548 -0.3930482,-0.04539 z m 4.41040505,-0.113645 -0.05339,-0.168217 0.10742996,-0.06807 c 0.059086,-0.03744 0.23686904,-0.06862 0.39507175,-0.06928 l 0.28764179,-0.0012 0.04583988,0.175292 0.04583987,0.175293 -0.09598167,0.06099 c -0.0527899,0.03355 -0.22717508,0.06154 -0.38752162,0.06221 l -0.29153996,0.0012 -0.05339,-0.168217 z m 1.51049842,-0.138381 -0.0529989,-0.166985 0.049366,-0.07988 0.0493652,-0.07987 0.34624333,0 0.3462425,0 0.052147,0.164299 c 0.068362,0.21539 0.032031,0.242698 -0.3855108,0.289761 l -0.35185542,0.03966 -0.0529989,-0.166984 z"
         id="path10595"
         inkscape:connector-curvature="0" /><path
         style="fill:#2b2b2b"
         d="m -26.693977,-17.801357 0,-14.222877 0.752083,0 0.752083,0 0,13.41875 0,13.4187497 13.458334,0 13.458333,0 0,0.7520833 0,0.7520833 -12.844792,2.375e-4 -12.844791,2.375e-4 -1.365625,0.051802 -1.365625,0.051811 0,-14.2228773 z m 2.246297,11.2318177 c -0.06982,-0.1819598 -0.111298,-0.1369599 2.289604,-2.4842658 l 2.279651,-2.2287629 0.446716,0 0.446716,0 1.06788,0.485276 1.06788,0.485276 0.164086,-0.102401 c 0.09025,-0.05632 0.951121,-0.73782 1.913052,-1.514443 l 1.748965,-1.412041 0.375207,0 0.375208,0 1.449947,0.557726 1.4499467,0.557726 0.1921715,-0.04823 0.1921716,-0.04823 0.1077846,0.129873 0.1077854,0.129873 -0.111127,0.06868 c -0.06112,0.03777 -0.3380258,0.09298 -0.6153475,0.122678 l -0.5042203,0.054 -1.260211,-0.490445 -1.26021,-0.490447 -1.902407,1.549235 -1.902407,1.5492347 -0.35093,0 -0.350931,0 -1.120287,-0.5122947 -1.120287,-0.512295 -0.12906,0.0719 c -0.07098,0.03955 -1.055054,1.0003909 -2.186824,2.135211 l -2.057762,2.063309 -0.379097,0 -0.379097,0 -0.04457,-0.1161383 z m 16.3627072,-5.7759497 c -0.1316692,-0.158651 -0.1140364,-0.176624 0.2377391,-0.242319 l 0.2821603,-0.05269 0.1051626,0.126713 c 0.1312132,0.158103 0.092557,0.197545 -0.247722,0.252765 l -0.270773,0.04394 -0.106567,-0.128406 z m 4.4422348,-0.102076 -0.184178,-0.0351 0.045636,-0.118926 c 0.0251,-0.06541 0.045636,-0.133824 0.045636,-0.152034 0,-0.01821 0.09975,-0.03311 0.2216667,-0.03311 l 0.2216666,0 0.095,0.095 c 0.05225,0.05225 0.095,0.141312 0.095,0.197916 l 0,0.102917 -0.178125,-0.01078 c -0.097969,-0.0059 -0.2610046,-0.02658 -0.3623023,-0.04588 z m 1.3778531,-0.153707 c -0.025168,-0.06559 -0.045759,-0.151957 -0.045759,-0.191937 l 0,-0.07269 0.3191509,0 0.3191517,0 0.046879,0.122164 c 0.059346,0.154654 0.047954,0.16281 -0.3029637,0.216901 l -0.2907,0.04481 -0.045758,-0.119245 z m -4.3950879,-0.06088 c -0.1316692,-0.158652 -0.1140364,-0.176624 0.2377391,-0.242319 l 0.2821603,-0.05269 0.1051626,0.126713 c 0.1312132,0.158103 0.092557,0.197545 -0.247722,0.252765 l -0.270773,0.04394 -0.106567,-0.128406 z m 1.5982871,-0.02351 -0.2572916,-0.03193 0,-0.05832 c 0,-0.03207 0.04275,-0.101067 0.095,-0.153317 l 0.095,-0.095 0.2480553,0 c 0.136431,0 0.270552,0.0225 0.2980482,0.04999 l 0.049992,0.04999 -0.079167,0.147924 c -0.043542,0.08136 -0.1046314,0.142222 -0.1357558,0.135254 -0.031124,-0.007 -0.1723712,-0.02704 -0.3138816,-0.0446 z m 4.30798641,-0.07468 c -0.029028,-0.02903 -0.052778,-0.102326 -0.052778,-0.162884 l 0,-0.110108 0.33577512,0.02434 0.33577592,0.02434 0.0262794,0.138542 0.02627938,0.138541 -0.30927725,0 c -0.17010225,0 -0.33302725,-0.02375 -0.3620545,-0.05278 z m 1.50416667,-0.158333 c -0.029028,-0.02903 -0.0527781,-0.09638 -0.0527781,-0.149672 l 0,-0.09689 0.296875,-0.03598 0.29687502,-0.03598 0.058163,0.08669 c 0.03199,0.04768 0.058708,0.131222 0.059375,0.185649 l 0.00121,0.09896 -0.3034719,0 c -0.16691033,0 -0.32722282,-0.02375 -0.35625007,-0.05278 z M -24.44768,-18.919539 c -0.06982,-0.18196 -0.111298,-0.13696 2.289604,-2.484266 l 2.279651,-2.228763 0.446716,0 0.446716,0 1.06788,0.485276 1.06788,0.485276 0.164086,-0.102401 c 0.09025,-0.05632 0.951121,-0.73782 1.913052,-1.514443 l 1.748965,-1.412041 0.375207,0 0.375208,0 1.449947,0.557726 1.4499467,0.557726 0.1921715,-0.04823 0.1921716,-0.04823 0.1077846,0.129873 0.1077854,0.129873 -0.111127,0.06868 c -0.06112,0.03777 -0.3380258,0.09298 -0.6153475,0.122678 l -0.5042203,0.054 -1.260211,-0.490445 -1.26021,-0.490447 -1.902407,1.549235 -1.902407,1.549235 -0.35093,0 -0.350931,0 -1.120287,-0.512295 -1.120287,-0.512295 -0.12906,0.0719 c -0.07098,0.03955 -1.055054,1.000391 -2.186824,2.135211 l -2.057762,2.063309 -0.379097,0 -0.379097,0 -0.04457,-0.116138 z m 16.3627072,-5.77595 c -0.1316692,-0.158651 -0.1140364,-0.176624 0.2377391,-0.242318 l 0.2821603,-0.05269 0.1051626,0.126713 c 0.1312132,0.158103 0.092557,0.197545 -0.247722,0.252765 l -0.270773,0.04394 -0.106567,-0.128406 z m 4.4422348,-0.102076 -0.184178,-0.0351 0.045636,-0.118926 c 0.0251,-0.06541 0.045636,-0.133824 0.045636,-0.152034 0,-0.01821 0.09975,-0.03311 0.2216667,-0.03311 l 0.2216666,0 0.095,0.095 c 0.05225,0.05225 0.095,0.141312 0.095,0.197916 l 0,0.102917 -0.178125,-0.01078 c -0.097969,-0.0059 -0.2610046,-0.02658 -0.3623023,-0.04588 z m 1.3778531,-0.153707 c -0.025168,-0.06559 -0.045759,-0.151957 -0.045759,-0.191937 l 0,-0.07269 0.3191509,0 0.3191517,0 0.046879,0.122164 c 0.059346,0.154654 0.047954,0.16281 -0.3029637,0.216901 l -0.2907,0.04481 -0.045758,-0.119245 z m -4.3950879,-0.06088 c -0.1316692,-0.158652 -0.1140364,-0.176624 0.2377391,-0.242319 l 0.2821603,-0.05269 0.1051626,0.126712 c 0.1312132,0.158103 0.092557,0.197545 -0.247722,0.252765 l -0.270773,0.04394 -0.106567,-0.128406 z m 1.5982871,-0.02351 -0.2572916,-0.03193 0,-0.05832 c 0,-0.03207 0.04275,-0.101067 0.095,-0.153317 l 0.095,-0.095 0.2480553,0 c 0.136431,0 0.270552,0.0225 0.2980482,0.04999 l 0.049992,0.04999 -0.079167,0.147924 c -0.043542,0.08136 -0.1046314,0.142222 -0.1357558,0.135254 -0.031124,-0.007 -0.1723712,-0.02704 -0.3138816,-0.0446 z m 4.30798641,-0.07468 c -0.029028,-0.02903 -0.052778,-0.102326 -0.052778,-0.162884 l 0,-0.110108 0.33577512,0.02434 0.33577592,0.02434 0.0262794,0.138542 0.02627938,0.138541 -0.30927725,0 c -0.17010225,0 -0.33302725,-0.02375 -0.3620545,-0.05278 z m 1.50416667,-0.158333 c -0.029028,-0.02903 -0.0527781,-0.09638 -0.0527781,-0.149672 l 0,-0.09689 0.296875,-0.03598 0.29687502,-0.03598 0.058163,0.08669 c 0.03199,0.04768 0.058708,0.131222 0.059375,0.185649 l 0.00121,0.09896 -0.3034719,0 c -0.16691033,0 -0.32722282,-0.02375 -0.35625007,-0.05278 z"
         id="path10593"
         inkscape:connector-curvature="0" /><path
         style="fill:#181818"
         d="m -26.693977,-17.7625 0,-14.182568 0.712271,0 0.712271,0 0.02002,13.398959 0.02002,13.398958 13.438542,0.02002 13.4385413,0.02002 0,0.712272 0,0.712272 -13.5177083,4.75e-4 -13.517708,4.75e-4 -0.653125,0.050842 -0.653125,0.050842 0,-14.182566 z m 2.348611,11.256321 c -0.02903,-0.029027 -0.05278,-0.1114065 -0.05278,-0.1830635 l 0,-0.1302861 2.288965,-2.2315191 2.288965,-2.2315203 0.388091,0 0.388091,0 1.103153,0.505801 1.103152,0.505801 0.09761,-0.05298 c 0.05369,-0.02914 0.897526,-0.702065 1.875201,-1.495385 l 1.777589,-1.442398 0.48123,0 0.481231,0 1.262899,0.486677 1.2628998,0.486676 -0.03833,0.06202 -0.03833,0.06202 0.080458,0.04973 c 0.044252,0.02735 0.080458,0.08325 0.080458,0.124221 l 0,0.07449 -0.3233665,0 -0.3233663,0 -1.131044,-0.435417 c -0.622073,-0.239479 -1.16652,-0.435416 -1.209881,-0.435416 -0.04336,0 -0.929658,0.693593 -1.969549,1.541318 l -1.890709,1.5413185 -0.295011,0.00243 -0.29501,0.00243 -1.147333,-0.5219965 c -1.384802,-0.630035 -0.893207,-0.863468 -3.475037,1.6501239 l -2.175199,2.1177083 -0.271136,0 c -0.149124,0 -0.294885,-0.02375 -0.323913,-0.052778 z m 0,-12.35 c -0.02903,-0.02903 -0.05278,-0.111407 -0.05278,-0.183063 l 0,-0.130287 2.288965,-2.231519 2.288965,-2.23152 0.388091,0 0.388091,0 1.103153,0.505801 1.103152,0.505801 0.09761,-0.05298 c 0.05369,-0.02914 0.897526,-0.702065 1.875201,-1.495385 l 1.777589,-1.442398 0.48123,0 0.481231,0 1.262899,0.486677 1.2628998,0.486676 -0.03833,0.06202 -0.03833,0.06202 0.080458,0.04973 c 0.044252,0.02735 0.080458,0.08325 0.080458,0.124221 l 0,0.07449 -0.3233665,0 -0.3233663,0 -1.131044,-0.435417 c -0.622073,-0.239479 -1.16652,-0.435416 -1.209881,-0.435416 -0.04336,0 -0.929658,0.693593 -1.969549,1.541318 l -1.890709,1.541318 -0.295011,0.0024 -0.29501,0.0024 -1.147333,-0.521996 c -1.384802,-0.630035 -0.893207,-0.863468 -3.475037,1.650124 l -2.175199,2.117708 -0.271136,0 c -0.149124,0 -0.294885,-0.02375 -0.323913,-0.05278 z"
         id="path10591"
         inkscape:connector-curvature="0" /></g></g></svg>