<?xml version="1.0" encoding="UTF-8" standalone="no"?>
<!-- Generator: Adobe Illustrator 16.1.0, SVG Export Plug-In . SVG Version: 6.00 Build 0)  -->

<svg
   xmlns:dc="http://purl.org/dc/elements/1.1/"
   xmlns:cc="http://creativecommons.org/ns#"
   xmlns:rdf="http://www.w3.org/1999/02/22-rdf-syntax-ns#"
   xmlns:svg="http://www.w3.org/2000/svg"
   xmlns="http://www.w3.org/2000/svg"
   xmlns:sodipodi="http://sodipodi.sourceforge.net/DTD/sodipodi-0.dtd"
   xmlns:inkscape="http://www.inkscape.org/namespaces/inkscape"
   version="1.1"
   id="Layer_1"
   x="0px"
   y="0px"
   width="48px"
   height="48px"
   viewBox="0 0 48 48"
   enable-background="new 0 0 48 48"
   xml:space="preserve"
   inkscape:version="0.48.5 r10040"
   sodipodi:docname="YahooFinance.svg"><metadata
     id="metadata3773"><rdf:RDF><cc:Work
         rdf:about=""><dc:format>image/svg+xml</dc:format><dc:type
           rdf:resource="http://purl.org/dc/dcmitype/StillImage" /><dc:title /></cc:Work></rdf:RDF></metadata><defs
     id="defs3771"><filter
       inkscape:label="Desaturate"
       x="0"
       y="0"
       width="1"
       height="1"
       inkscape:menu="Color"
       inkscape:menu-tooltip="Render in shades of gray by reducing saturation to zero"
       color-interpolation-filters="sRGB"
       id="filter8407"><feColorMatrix
         type="saturate"
         values="0"
         id="feColorMatrix8409" /></filter></defs><sodipodi:namedview
     pagecolor="#ffffff"
     bordercolor="#666666"
     borderopacity="1"
     objecttolerance="10"
     gridtolerance="10"
     guidetolerance="10"
     inkscape:pageopacity="0"
     inkscape:pageshadow="2"
     inkscape:window-width="1918"
     inkscape:window-height="1042"
     id="namedview3769"
     showgrid="false"
     inkscape:zoom="6.9532167"
     inkscape:cx="39.201797"
     inkscape:cy="21.615366"
     inkscape:window-x="0"
     inkscape:window-y="37"
     inkscape:window-maximized="0"
     inkscape:current-layer="Layer_1" /><path
     fill="#FFFFFF"
     d="M25,8H13v32h22V17c0-4.123-8-1-8-1C28,12,27,8,25,8z"
     id="path3765" /><path
     fill="#333333"
     d="M28,6H13h-2v2v32v2h2h22h2v-2V16v-2L28,6z M35,40H13V8h12c2,0,3,4,2,8c0,0,8-3.123,8,1V40z"
     id="path3767" /><g
     id="g8399"
     transform="matrix(0.69313889,0,0,0.69313889,51.798953,-2.4449616)"
     style="fill:#666"><path
       style="fill:#666"
       d="m -52.36406,56.070387 c -0.06347,-0.165408 -0.08714,-0.952749 -0.0526,-1.749645 l 0.0628,-1.448903 1.154791,0 c 1.332411,0 1.722947,0.575105 0.472415,0.695679 -0.811172,0.07821 -0.892769,0.360784 -0.157472,0.54533 0.689263,0.172994 0.693888,0.753629 0.006,0.753629 -0.406907,0 -0.556267,0.144196 -0.692023,0.668095 -0.188832,0.72873 -0.610647,1.013413 -0.793918,0.535815 z m 3.359391,0 c -0.257491,-0.671011 -5.55e-4,-3.198548 0.325148,-3.198548 0.416711,0 0.467181,3.273651 0.0526,3.411844 -0.144289,0.0481 -0.314275,-0.04789 -0.377749,-0.213296 z m 1.934856,0.125849 c -0.07699,-0.07699 -0.139975,-0.835815 -0.139975,-1.686284 0,-1.930808 0.302276,-2.14822 1.440908,-1.036375 0.945909,0.923654 1.078636,0.941562 1.078636,0.145521 0,-1.602418 0.845908,-0.919196 0.923657,0.746018 0.10094,2.161906 -0.376371,2.484738 -1.599768,1.082007 l -0.781092,-0.895589 -0.0063,0.640384 c -0.0081,0.826757 -0.525942,1.394477 -0.916101,1.004318 z m 4.164603,-0.06941 c -0.122832,-0.198748 0.797635,-2.539448 1.218082,-3.097519 0.417818,-0.55458 0.822988,-0.217939 1.501964,1.247928 0.844875,1.82403 0.703541,2.752211 -0.249577,1.639049 -0.197753,-0.230958 -0.553761,-0.419924 -0.791131,-0.419924 -0.237369,0 -0.593378,0.188966 -0.791131,0.419924 -0.39544,0.461841 -0.689775,0.531611 -0.888207,0.210542 z m 4.448212,0.07378 c -0.07939,-0.07939 -0.144349,-0.84019 -0.144349,-1.690659 0,-2.010697 0.345996,-2.215561 1.495634,-0.885563 l 0.801416,0.927145 0.0063,-0.656668 c 0.007,-0.735855 0.524243,-1.323901 0.86486,-0.983285 0.116,0.116 0.182858,0.909374 0.148573,1.763052 -0.07505,1.868674 -0.404,2.082491 -1.444574,0.938977 -0.835256,-0.917884 -0.987721,-0.929398 -1.071514,-0.08093 -0.0642,0.650069 -0.366509,0.957728 -0.656312,0.667926 z m 4.582205,-0.367807 c -1.230915,-1.230914 -0.198582,-3.199796 1.588425,-3.029471 0.92347,0.08802 0.990418,0.667739 0.08886,0.769462 -0.807715,0.09113 -1.15479,0.385295 -1.15479,0.978739 0,0.593445 0.347075,0.887608 1.15479,0.97874 1.007442,0.113669 0.812404,0.687739 -0.260042,0.765402 -0.721198,0.05223 -0.989905,-0.03553 -1.417243,-0.462872 z m 3.383166,0.18099 c -0.190814,-0.497253 -0.154608,-2.674928 0.04983,-2.997302 0.255648,-0.403118 2.233563,-0.252319 2.233563,0.17029 0,0.177227 -0.229529,0.345671 -0.524905,0.385213 -0.824372,0.110358 -0.930426,0.384029 -0.205041,0.529106 0.754255,0.150851 0.751452,0.586821 -0.0049,0.765376 -0.821642,0.193963 -0.734713,0.596494 0.144458,0.668927 0.54216,0.04467 0.800371,0.167545 0.800371,0.380883 0,0.480108 -2.311847,0.570515 -2.493359,0.09751 z m -17.702994,-7.159771 c -0.260075,-0.677743 0.232097,-1.016501 1.636297,-1.126252 3.52035,-0.275147 2.815623,-3.55305 -1.997075,-9.289013 -2.540021,-3.027296 -2.501978,-2.998569 -4.232057,-3.195772 -1.553764,-0.177106 -1.828103,-0.331347 -1.73688,-0.976525 l 0.07086,-0.50116 5.482946,-0.05592 c 4.766406,-0.04861 5.518619,-0.01294 5.755917,0.27299 0.447481,0.539182 -0.189045,0.956072 -1.663977,1.089814 -0.711326,0.0645 -1.337584,0.188895 -1.391685,0.276431 -0.07664,0.124006 3.519824,5.074638 4.325976,5.954824 0.180342,0.196904 2.471273,-1.574928 3.745061,-2.896472 0.796658,-0.826525 0.777567,-0.850153 -0.904858,-1.119844 -1.07127,-0.171724 -1.546851,-0.597575 -1.321933,-1.183702 0.156195,-0.407038 9.241356,-0.53307 9.489453,-0.131641 0.300183,0.485706 -0.148348,1.042732 -1.011143,1.255728 -2.130994,0.526073 -2.542783,0.717729 -4.183693,1.947189 -0.954288,0.715005 -2.372829,1.919856 -3.152313,2.677446 l -1.417243,1.377438 0.0032,1.881661 c 0.0042,2.44613 0.03686,2.488181 2.033778,2.616529 1.716519,0.110326 2.134216,0.429598 1.523989,1.164877 -0.403787,0.486533 -10.867144,0.449974 -11.054637,-0.03863 z m 18.464167,-1.972643 c -0.568384,-0.228463 -0.709103,-2.01543 -0.174855,-2.220441 0.82181,-0.315358 2.115153,0.224296 2.182072,0.910481 0.13034,1.336488 -0.659234,1.851784 -2.007217,1.30996 z m 0.428555,-3.730554 c -0.337921,-0.214762 -0.589745,-10.02843 -0.262524,-10.230664 0.332259,-0.205346 3.712025,0.124473 4.067958,0.396978 0.271704,0.208016 0.245163,0.46353 -0.209468,2.016504 -0.286327,0.978068 -0.815133,3.056692 -1.175124,4.619163 -0.784753,3.406078 -1.209853,3.96765 -2.420842,3.198019 z"
       id="path8405"
       inkscape:connector-curvature="0" /><path
       style="fill:#666"
       d="m -48.012216,48.518703 c 0.06093,-0.429256 0.20839,-0.486296 1.501918,-0.58097 1.94045,-0.142022 2.088807,-0.35491 1.986732,-2.850901 -0.09002,-2.201275 -0.09362,-2.207595 -3.756085,-6.597241 -2.614813,-3.133983 -2.592323,-3.116561 -4.411908,-3.417664 -1.326374,-0.219488 -1.551954,-0.317854 -1.551954,-0.67674 0,-0.479896 10.427082,-0.784886 10.89334,-0.318629 0.384764,0.384764 -0.182759,0.657675 -1.680221,0.807985 -1.885305,0.189239 -1.882789,0.201446 0.763783,3.704628 2.638829,3.492933 2.256842,3.306259 3.956102,1.93332 3.410407,-2.755483 3.546128,-3.066039 1.483097,-3.393616 -1.160924,-0.184337 -1.357989,-0.279903 -1.415744,-0.686559 l -0.06709,-0.472415 4.633766,0 c 3.795873,0 4.633766,0.0523 4.633766,0.289234 0,0.445392 -0.423831,0.690226 -1.637697,0.946047 -1.811516,0.381776 -4.802603,2.444868 -7.128215,4.916662 l -1.1023,1.171589 0.0032,1.849735 c 0.0041,2.379743 0.04554,2.434485 2.034273,2.689584 4.084453,0.523922 2.308425,1.042865 -3.784746,1.105875 l -5.421592,0.05607 0.06756,-0.47599 z m 18.271263,-1.882734 c -0.308929,-0.30893 -0.333526,-1.562507 -0.03429,-1.747447 0.598162,-0.369685 1.881952,0.135734 1.881952,0.740912 0,1.194015 -1.07472,1.779479 -1.847666,1.006535 z m 0.457449,-3.77798 c -0.09342,-0.150857 -0.202813,-2.437255 -0.243094,-5.080884 l -0.07324,-4.806598 1.847065,0.14987 c 1.83537,0.148921 2.498018,0.387509 2.239227,0.80624 -0.07435,0.120294 -0.625699,2.211833 -1.225231,4.647863 l -1.090057,4.429147 -0.642408,0.06432 c -0.365338,0.03658 -0.71567,-0.05398 -0.812265,-0.209962 z"
       id="path8403"
       inkscape:connector-curvature="0" /><path
       style="fill:#666"
       d="m -47.839673,48.593763 c 0,-0.107181 0.590518,-0.260339 1.312262,-0.340349 3.575263,-0.396346 3.403072,-3.746729 -0.439458,-8.550689 -3.637667,-4.547837 -3.701659,-4.60491 -5.459598,-4.869327 -2.838562,-0.426955 -1.706253,-0.645949 3.641752,-0.704332 5.141592,-0.05613 6.650564,0.155787 3.622057,0.508673 -2.14366,0.249782 -2.121283,0.382739 0.692458,4.114272 2.684928,3.560703 2.494602,3.481536 4.468115,1.858529 3.352471,-2.757055 3.582189,-3.357001 1.415049,-3.695639 -2.871028,-0.448629 -1.77214,-0.735038 2.820175,-0.735038 4.715496,0 5.396997,0.204047 2.797846,0.837695 -0.755575,0.184203 -1.646948,0.512002 -1.980829,0.728444 -1.20775,0.782936 -4.429596,3.463972 -5.308339,4.417296 l -0.899063,0.975368 0.07067,2.302561 c 0.08278,2.697135 0.08394,2.698626 2.105406,2.703253 0.772669,0.0018 1.463245,0.0977 1.534616,0.213177 0.07137,0.115479 0.05333,0.211986 -0.0401,0.214461 -6.411958,0.169819 -10.353017,0.178059 -10.353017,0.02164 z m 18.686614,-2.103669 c -0.493434,-0.137254 -0.821525,-1.281867 -0.367434,-1.281867 0.08661,0 0.440921,0 0.787358,0 0.647455,0 0.803451,0.353202 0.502441,1.137619 -0.137933,0.359444 -0.144844,0.360525 -0.922365,0.144248 z m 0.290535,-3.749183 c -0.155515,-0.104314 -0.268718,-1.73719 -0.336456,-4.853155 l -0.102085,-4.695946 0.943155,0.129274 c 0.518736,0.0711 1.189798,0.130721 1.491246,0.132489 1.040179,0.0061 1.1412,0.224133 0.738111,1.593071 -0.200526,0.68101 -0.708487,2.702401 -1.128804,4.491979 -0.752577,3.204243 -0.966377,3.63077 -1.605167,3.202288 z"
       id="path8401"
       inkscape:connector-curvature="0" /></g></svg>